<?xml version="1.0" encoding="UTF-8" standalone="no"?>
<!-- Created with Inkscape (http://www.inkscape.org/) -->

<svg
   width="0.001mm"
   height="0.001mm"
   viewBox="0 0 0.001 0.001"
   version="1.1"
   id="svg1"
   sodipodi:docname="planet.svg"
   inkscape:version="1.4 (e7c3feb1, 2024-10-09)"
   xmlns:inkscape="http://www.inkscape.org/namespaces/inkscape"
   xmlns:sodipodi="http://sodipodi.sourceforge.net/DTD/sodipodi-0.dtd"
   xmlns:xlink="http://www.w3.org/1999/xlink"
   xmlns="http://www.w3.org/2000/svg"
   xmlns:svg="http://www.w3.org/2000/svg">
  <sodipodi:namedview
     id="namedview1"
     pagecolor="#505050"
     bordercolor="#eeeeee"
     borderopacity="1"
     inkscape:showpageshadow="0"
     inkscape:pageopacity="0"
     inkscape:pagecheckerboard="0"
     inkscape:deskcolor="#505050"
     inkscape:document-units="mm"
     inkscape:zoom="0.056568542"
     inkscape:cx="-3049.398"
     inkscape:cy="928.07766"
     inkscape:window-width="1104"
     inkscape:window-height="808"
     inkscape:window-x="0"
     inkscape:window-y="38"
     inkscape:window-maximized="0"
     inkscape:current-layer="layer1" />
  <defs
     id="defs1">
    <linearGradient
       id="linearGradient39"
       inkscape:collect="always">
      <stop
         style="stop-color:#f3e5ab;stop-opacity:1;"
         offset="0"
         id="stop39" />
      <stop
         style="stop-color:#f3e5ab;stop-opacity:0;"
         offset="1"
         id="stop40" />
    </linearGradient>
    <linearGradient
       id="linearGradient27"
       inkscape:collect="always">
      <stop
         style="stop-color:#f3e5ab;stop-opacity:1;"
         offset="0"
         id="stop27" />
      <stop
         style="stop-color:#f3e5ab;stop-opacity:0;"
         offset="1"
         id="stop28" />
    </linearGradient>
    <linearGradient
       id="linearGradient25"
       inkscape:collect="always">
      <stop
         style="stop-color:#f3e5ab;stop-opacity:1;"
         offset="0"
         id="stop25" />
      <stop
         style="stop-color:#f3e5ab;stop-opacity:0;"
         offset="1"
         id="stop26" />
    </linearGradient>
    <linearGradient
       id="linearGradient23"
       inkscape:collect="always">
      <stop
         style="stop-color:#f3e5ab;stop-opacity:1;"
         offset="0"
         id="stop23" />
      <stop
         style="stop-color:#f3e5ab;stop-opacity:0;"
         offset="1"
         id="stop24" />
    </linearGradient>
    <linearGradient
       id="linearGradient21"
       inkscape:collect="always">
      <stop
         style="stop-color:#f3e5ab;stop-opacity:1;"
         offset="0"
         id="stop21" />
      <stop
         style="stop-color:#f3e5ab;stop-opacity:0;"
         offset="1"
         id="stop22" />
    </linearGradient>
    <linearGradient
       id="linearGradient16"
       inkscape:collect="always">
      <stop
         style="stop-color:#f3e5ab;stop-opacity:1;"
         offset="0"
         id="stop16" />
      <stop
         style="stop-color:#f3e5ab;stop-opacity:0;"
         offset="1"
         id="stop17" />
    </linearGradient>
    <linearGradient
       id="linearGradient14"
       inkscape:collect="always">
      <stop
         style="stop-color:#f3e5ab;stop-opacity:1;"
         offset="0"
         id="stop14" />
      <stop
         style="stop-color:#f3e5ab;stop-opacity:0;"
         offset="1"
         id="stop15" />
    </linearGradient>
    <linearGradient
       id="linearGradient12"
       inkscape:collect="always">
      <stop
         style="stop-color:#f3e5ab;stop-opacity:1;"
         offset="0"
         id="stop12" />
      <stop
         style="stop-color:#f3e5ab;stop-opacity:0;"
         offset="1"
         id="stop13" />
    </linearGradient>
    <inkscape:path-effect
       effect="spiro"
       id="path-effect9"
       is_visible="true"
       lpeversion="1" />
    <inkscape:path-effect
       effect="spiro"
       id="path-effect8"
       is_visible="true"
       lpeversion="1" />
    <inkscape:path-effect
       effect="spiro"
       id="path-effect7"
       is_visible="true"
       lpeversion="1" />
    <inkscape:path-effect
       effect="spiro"
       id="path-effect6"
       is_visible="true"
       lpeversion="1" />
    <inkscape:path-effect
       effect="spiro"
       id="path-effect5"
       is_visible="true"
       lpeversion="1" />
    <inkscape:path-effect
       effect="spiro"
       id="path-effect4"
       is_visible="true"
       lpeversion="1" />
    <inkscape:path-effect
       effect="spiro"
       id="path-effect3"
       is_visible="true"
       lpeversion="1" />
    <inkscape:path-effect
       effect="spiro"
       id="path-effect2"
       is_visible="true"
       lpeversion="1" />
    <linearGradient
       inkscape:collect="always"
       xlink:href="#linearGradient12"
       id="linearGradient13"
       x1="-281.9637"
       y1="57.295903"
       x2="87.859201"
       y2="57.295903"
       gradientUnits="userSpaceOnUse" />
    <linearGradient
       inkscape:collect="always"
       xlink:href="#linearGradient14"
       id="linearGradient15"
       x1="-230.51439"
       y1="-22.484483"
       x2="17.701038"
       y2="-22.484483"
       gradientUnits="userSpaceOnUse" />
    <linearGradient
       inkscape:collect="always"
       xlink:href="#linearGradient16"
       id="linearGradient17"
       x1="-256.23899"
       y1="21.94711"
       x2="59.795899"
       y2="21.94711"
       gradientUnits="userSpaceOnUse" />
    <filter
       inkscape:collect="always"
       style="color-interpolation-filters:sRGB"
       id="filter17"
       x="-0.048316769"
       y="-0.65211082"
       width="1.0966335"
       height="2.3042676">
      <feGaussianBlur
         inkscape:collect="always"
         stdDeviation="5.220086"
         id="feGaussianBlur17" />
    </filter>
    <filter
       inkscape:collect="always"
       style="color-interpolation-filters:sRGB"
       id="filter18"
       x="-0.046282383"
       y="-0.65636839"
       width="1.0925648"
       height="2.3127367">
      <feGaussianBlur
         inkscape:collect="always"
         stdDeviation="5.9936995"
         id="feGaussianBlur18" />
    </filter>
    <filter
       inkscape:collect="always"
       style="color-interpolation-filters:sRGB"
       id="filter19"
       x="-0.050299611"
       y="-0.58108518"
       width="1.1005992"
       height="2.1623635">
      <feGaussianBlur
         inkscape:collect="always"
         stdDeviation="4.0556456"
         id="feGaussianBlur19" />
    </filter>
    <filter
       inkscape:collect="always"
       style="color-interpolation-filters:sRGB"
       id="filter20"
       x="-0.047374894"
       y="-0.53566433"
       width="1.0947498"
       height="2.071907">
      <feGaussianBlur
         inkscape:collect="always"
         stdDeviation="6.4829129"
         id="feGaussianBlur20" />
    </filter>
    <filter
       inkscape:collect="always"
       style="color-interpolation-filters:sRGB"
       id="filter21"
       x="-0.046369371"
       y="-0.57006219"
       width="1.0927387"
       height="2.140169">
      <feGaussianBlur
         inkscape:collect="always"
         stdDeviation="6.5717132"
         id="feGaussianBlur21" />
    </filter>
    <linearGradient
       inkscape:collect="always"
       xlink:href="#linearGradient21"
       id="linearGradient22"
       x1="-311.55435"
       y1="99.886971"
       x2="105.75681"
       y2="99.886971"
       gradientUnits="userSpaceOnUse" />
    <linearGradient
       inkscape:collect="always"
       xlink:href="#linearGradient23"
       id="linearGradient24"
       x1="-319.95259"
       y1="149.30452"
       x2="110.64714"
       y2="149.30452"
       gradientUnits="userSpaceOnUse" />
    <filter
       inkscape:collect="always"
       style="color-interpolation-filters:sRGB"
       id="filter24"
       x="-0.046329996"
       y="-0.58756159"
       width="1.09266"
       height="2.1751778">
      <feGaussianBlur
         inkscape:collect="always"
         stdDeviation="6.1815161"
         id="feGaussianBlur24" />
    </filter>
    <linearGradient
       inkscape:collect="always"
       xlink:href="#linearGradient25"
       id="linearGradient26"
       x1="-308.49236"
       y1="193.65653"
       x2="100.35621"
       y2="193.65653"
       gradientUnits="userSpaceOnUse" />
    <filter
       inkscape:collect="always"
       style="color-interpolation-filters:sRGB"
       id="filter26"
       x="-0.04893042"
       y="-0.44392284"
       width="1.0978608"
       height="1.8878948">
      <feGaussianBlur
         inkscape:collect="always"
         stdDeviation="5.538008"
         id="feGaussianBlur26" />
    </filter>
    <linearGradient
       inkscape:collect="always"
       xlink:href="#linearGradient27"
       id="linearGradient28"
       x1="-282.39258"
       y1="246.97048"
       x2="71.917804"
       y2="246.97048"
       gradientUnits="userSpaceOnUse" />
    <filter
       inkscape:collect="always"
       style="color-interpolation-filters:sRGB"
       id="filter28"
       x="-0.052772191"
       y="-0.61978267"
       width="1.1055444"
       height="2.240536">
      <feGaussianBlur
         inkscape:collect="always"
         stdDeviation="3.5092077"
         id="feGaussianBlur28" />
    </filter>
    <linearGradient
       inkscape:collect="always"
       xlink:href="#linearGradient39"
       id="linearGradient40"
       x1="-229.58197"
       y1="288.28349"
       x2="-0.77093474"
       y2="288.28349"
       gradientUnits="userSpaceOnUse" />
  </defs>
  <g
     inkscape:label="Layer 1"
     inkscape:groupmode="layer"
     id="layer1">
    <ellipse
       style="opacity:1;fill:#09bc8a;stroke:#f3e5ab;stroke-width:5;stroke-linecap:round;stroke-linejoin:round;stroke-dasharray:none;stroke-opacity:1;fill-opacity:1"
       id="path1"
       cx="-101.31104"
       cy="125.45926"
       rx="193.12"
       ry="193.11967" />
    <path
       style="opacity:1;fill:#a3cef1;fill-opacity:0;stroke:url(#linearGradient13);stroke-width:4.99999;stroke-linecap:round;stroke-linejoin:round;stroke-dasharray:none;stroke-opacity:1;filter:url(#filter18)"
       d="m -279.46371,44.433558 52.6187,25.724691 c 11.47376,-0.242298 22.87064,-3.49855 32.74052,-9.354431 2.70466,-1.604696 5.30842,-3.406473 8.18512,-4.677217 6.18453,-2.731929 13.15159,-2.826168 19.87818,-3.507913 12.94892,-1.312381 25.6028,-4.948433 38.58703,-5.846521 11.27891,-0.780135 22.60396,0 33.909825,0 h 26.893996 c 0.195132,0 0.390216,-0.0053 0.585159,-0.01389 0.194942,-0.0086 0.391596,-0.01775 0.584146,0.01389 0.362294,0.05953 0.689401,0.267572 0.938227,0.537548 0.248826,0.269975 0.425069,0.599368 0.564143,0.939161 0.27815,0.679587 0.423122,1.424129 0.836238,2.031204 0.468965,0.689146 1.243395,1.126282 2.050408,1.335039 0.807014,0.208757 1.652212,0.21028 2.485181,0.178458 0.832969,-0.03182 1.66894,-0.09559 2.498408,-0.01293 0.829467,0.08266 1.664831,0.323225 2.320436,0.838037 0.433921,0.340736 0.771847,0.786662 1.169305,1.169305 0.660688,0.636061 1.48362,1.091469 2.355198,1.376838 0.871577,0.285369 1.791752,0.404726 2.708759,0.41819 1.834013,0.02693 3.644557,-0.362483 5.45978,-0.625724 6.672281,-0.967605 13.486878,-0.230252 20.094608,1.108964 6.60773,1.339216 13.0802842,3.274647 19.6617346,4.737557 8.8284756,1.962373 18.0505804,3.063211 26.8939964,1.169304 3.572606,-0.76511 7.04913,-2.012109 10.677607,-2.439961 1.814239,-0.213927 3.665292,-0.218687 5.455123,0.147008 1.78983,0.365695 3.519733,1.113476 4.914745,2.292953 0.842226,0.712098 1.549902,1.567655 2.338609,2.338608 2.80036,2.737325 6.621633,4.347747 10.523737,4.677217 3.48808,0.294512 7.002645,-0.393122 10.311112,-1.536575 3.308467,-1.143452 6.440698,-2.735365 9.567059,-4.309946 2.335196,-1.176114 4.673818,-2.345425 7.015826,-3.507913"
       id="path2"
       transform="matrix(0.96257395,0,0,1.0033499,-6.4093799,-0.19193679)"
       inkscape:original-d="m -279.46371,44.433558 52.6187,25.724691 c 11.98108,-0.10203 22.2989,-4.133625 32.74052,-9.354431 4.47112,-2.235561 2.85516,-3.037228 8.18512,-4.677217 9.22729,-2.839165 10.77424,-2.051283 19.87818,-3.507913 12.87104,-2.059366 25.60998,-4.548815 38.58703,-5.846521 10.87872,-1.087872 23.24986,0 33.909825,0 8.964666,0 17.929331,0 26.893996,0 0.389769,0 0.893697,-0.275607 1.169305,0 0.993717,0.993718 1.259005,2.608243 2.338608,3.507913 5.142842,4.285702 3.764911,1.220704 9.354433,2.338608 0.540512,0.108103 0.639298,1.017874 1.169305,1.169305 12.216788,3.490511 2.64871,0.1193 10.523737,1.169304 13.15171,1.753561 26.491006,4.990692 39.7563426,5.846521 8.9545182,0.57771 17.9270094,0.837193 26.8939964,1.169304 6.547079,0.242484 14.768568,-1.395313 21.047475,0 1.076179,0.239151 1.393282,1.771412 2.338609,2.338608 3.291718,1.975031 6.846862,3.574154 10.523737,4.677217 7.359264,2.207779 14.111914,-2.386767 19.878171,-5.846521 1.60725,-0.96435 3.054288,0.453625 7.015826,-3.507913"
       inkscape:path-effect="#path-effect2" />
    <path
       style="opacity:1;fill:#a3cef1;fill-opacity:0;stroke:url(#linearGradient22);stroke-width:4.99999;stroke-linecap:round;stroke-linejoin:round;stroke-dasharray:none;stroke-opacity:1;filter:url(#filter20)"
       d="m -293.49536,83.020595 c 23.14544,2.976357 45.49859,11.917616 64.31174,25.724695 3.68279,2.70282 7.33593,5.64328 11.69304,7.01582 5.62373,1.77154 11.6875,0.71972 17.53957,0 9.30101,-1.14389 18.69517,-1.40476 28.0633,-1.1693 3.5083,0.0882 7.02293,0.24563 10.52373,0 6.071,-0.42597 12.03935,-2.07222 17.53957,-4.67722 2.68805,-1.27311 5.29995,-2.78531 8.18513,-3.50791 2.50083,-0.62634 5.10745,-0.63364 7.68176,-0.77288 2.57431,-0.13925 5.20415,-0.43125 7.51919,-1.56573 2.52783,-1.23876 4.50794,-3.39855 7.01582,-4.677215 3.21633,-1.639876 6.97309,-1.685273 10.52374,-2.33861 6.432869,-1.183678 12.326336,-4.41608 18.70887,-5.846519 10.191944,-2.284195 20.959799,0.211812 30.401908,4.677217 3.939882,1.863267 7.716181,4.063536 11.693041,5.846517 11.001702,4.93249 23.19806,6.52633 35.2357182,7.20582 12.0376582,0.67948 24.1476478,0.50445 36.0918358,2.14862 3.029785,0.41706 6.069914,0.95216 9.124776,0.80603 3.054863,-0.14612 6.188256,-1.04795 8.414789,-3.14464 0.401328,-0.37792 0.769016,-0.79028 1.169302,-1.16931 1.941798,-1.83866 4.589725,-2.81374 7.250488,-3.08132 2.660764,-0.26759 5.348037,0.1274 7.950467,0.74272 0.973886,0.23027 1.946773,0.4925 2.94486,0.56528 0.998088,0.0728 2.039408,-0.0573 2.901662,-0.56528 0.715931,-0.42174 1.263036,-1.0733 1.783486,-1.72103 0.520449,-0.64773 1.040359,-1.31522 1.724426,-1.78689 0.574826,-0.39635 1.24593,-0.63836 1.93111,-0.77269 0.685179,-0.13433 1.386662,-0.16435 2.084885,-0.16368 1.396446,0.001 2.818342,0.12122 4.169134,-0.23293 0.786828,-0.20629 1.523079,-0.567506 2.287875,-0.844529 0.764796,-0.277023 1.589222,-0.471278 2.389342,-0.324776 0.576664,0.105587 1.119228,0.390294 1.53377,0.804835 0.414542,0.41454 0.69925,0.95711 0.804837,1.53377"
       id="path3"
       transform="matrix(0.98204425,0,0,1.0012479,1.8730789,-0.12465127)"
       inkscape:original-d="m -293.49536,83.020595 c 12.77274,12.240077 45.58772,14.490279 64.31174,25.724695 4.13513,2.48108 6.98829,5.44757 11.69304,7.01582 4.42471,1.47491 12.83502,0 17.53957,0 9.48368,0 18.65576,-0.31407 28.0633,-1.1693 3.4935,-0.31759 7.04291,0.4351 10.52373,0 5.85111,-0.73139 12.02283,-2.60844 17.53957,-4.67722 2.77938,-1.04227 5.24658,-3.08812 8.18513,-3.50791 4.98793,-0.71256 10.4188,0.0525 15.20095,-2.33861 2.51393,-1.25696 4.5019,-3.42025 7.01582,-4.677215 0.87426,-0.437126 9.32551,-1.979139 10.52374,-2.33861 5.297395,-1.589217 13.864103,-4.99156 18.70887,-5.846519 9.349084,-1.649838 21.743895,1.310212 30.401908,4.677217 4.061434,1.579446 7.571986,4.429907 11.693041,5.846517 28.565063,9.81924 43.2821144,9.35444 71.327554,9.35444 5.788866,0 12.058221,-0.14608 17.539565,-2.33861 0.511789,-0.20472 0.628793,-1.0612 1.169302,-1.16931 5.027044,-1.00541 10.105713,-1.77247 15.200955,-2.3386 1.93692,-0.21522 4.021765,0.68428 5.846522,0 1.548355,-0.58064 2.216632,-2.47489 3.507912,-3.50792 2.875209,-2.300164 5.487101,0.17971 8.185129,-1.1693 0.05841,-0.0292 1.087686,-2.964069 4.677217,-1.169305 0.986043,0.493022 1.559073,1.559075 2.338607,2.338605"
       inkscape:path-effect="#path-effect3" />
    <path
       style="opacity:1;fill:#a3cef1;fill-opacity:0;stroke:url(#linearGradient24);stroke-width:4.99999;stroke-linecap:round;stroke-linejoin:round;stroke-dasharray:none;stroke-opacity:1;filter:url(#filter21)"
       d="m -301.68048,133.30067 c 8.08258,2.04478 16.28708,3.60755 24.5554,4.67722 11.38066,1.47232 22.89135,2.01316 34.16449,4.15877 11.27313,2.1456 22.49759,6.03821 31.31653,13.38079 1.50104,1.24976 2.94444,2.60653 4.67722,3.50792 1.66616,0.86673 3.54329,1.27675 5.41831,1.38432 1.87503,0.10757 3.75528,-0.0785 5.61355,-0.3507 3.71655,-0.5445 7.45047,-1.43748 11.18492,-1.03362 2.13235,0.2306 4.25807,0.88295 6.38366,0.59672 1.0628,-0.14311 2.11359,-0.53576 2.91104,-1.25277 0.39872,-0.3585 0.72968,-0.7952 0.94822,-1.28484 0.21854,-0.48964 0.32286,-1.03248 0.28082,-1.56703 -0.0154,-0.19619 -0.0502,-0.39054 -0.0637,-0.58687 -0.0135,-0.19634 -0.005,-0.39796 0.0637,-0.58243 0.057,-0.15342 0.1546,-0.29072 0.27635,-0.40011 0.12176,-0.10938 0.26727,-0.19118 0.42192,-0.24481 0.30928,-0.10725 0.64913,-0.10105 0.96945,-0.0335 0.64062,0.13507 1.20959,0.50241 1.84019,0.67844 0.5257,0.14674 1.08486,0.15624 1.62279,0.0639 0.53793,-0.0923 1.05561,-0.28444 1.54185,-0.53234 0.9725,-0.4958 1.8146,-1.20732 2.68188,-1.87019 6.96332,-5.32214 15.90484,-7.65398 24.66913,-7.63896 8.76428,0.015 17.39739,2.24251 25.61095,5.30035 13.92104,5.18269 27.286118,12.86802 42.094951,14.03166 7.386848,0.58044 14.824507,-0.50671 22.216779,0 4.326292,0.29655 8.599786,1.13682 12.922481,1.48186 4.322695,0.34503 8.79252,0.16954 12.802211,-1.48186 1.612338,-0.66404 3.119886,-1.55419 4.677217,-2.33861 4.69666,-2.36567 9.9489394,-3.77506 15.2009542,-3.50792 1.5618213,0.0794 3.1431968,0.30394 4.6772168,0 1.2882403,-0.25524 2.4752174,-0.87176 3.6020818,-1.54621 1.1268645,-0.67446 2.2188852,-1.4167 3.4137431,-1.9617 1.9900276,-0.9077 4.1911511,-1.23539 6.3673051,-1.45556 2.176155,-0.22016 4.375022,-0.34487 6.495041,-0.88305 2.641284,-0.67051 5.075329,-1.96038 7.52022,-3.16391 2.444891,-1.20353 4.976616,-2.3454 7.680734,-2.68261 2.710113,-0.33796 5.458127,0.14965 8.185128,0 3.170286,-0.17398 6.22083,-1.2007 9.303089,-1.96271 3.082259,-0.76202 6.355796,-1.25828 9.405779,-0.3759 0.776809,0.22474 1.52589,0.53571 2.29602,0.78236 0.770129,0.24666 1.573674,0.42992 2.381196,0.38695 1.000036,-0.0532 1.961871,-0.45569 2.775613,-1.03941 0.813743,-0.58371 1.488316,-1.3429 2.074551,-2.15483 1.172472,-1.62387 2.019157,-3.48084 3.334965,-4.99089 1.185987,-1.36107 2.736262,-2.4017 4.445125,-2.98381 1.708863,-0.58212 3.572019,-0.70426 5.342251,-0.35021 1.770232,0.35404 3.443092,1.18338 4.796613,2.37798 1.353522,1.19459 2.384303,2.75143 2.955573,4.46395"
       id="path4"
       transform="matrix(0.97169118,0,0,1.0020645,-2.7265094,-0.30823866)"
       inkscape:original-d="m -301.68048,133.30067 c 8.18512,1.55908 16.46574,2.68108 24.5554,4.67722 21.93844,5.41338 43.72541,11.43273 65.48102,17.53956 1.88742,0.52981 2.27684,3.02784 4.67722,3.50792 3.03839,0.60767 18.37191,0.96121 22.21678,0 3.58726,-0.89682 7.12505,-2.05133 10.52374,-3.50792 0.35825,-0.15353 -0.36977,-1.04604 0,-1.1693 1.1093,-0.36977 2.37352,0.2836 3.50791,0 2.0363,-0.50907 3.85527,-1.67486 5.84652,-2.33861 13.2725,-4.42416 36.33692,-4.95295 50.28008,-2.33861 14.702933,2.7568 27.676763,10.1868 42.094951,14.03166 4.921647,1.31243 16.220469,0 22.216779,0 6.775064,0 19.928692,1.44899 25.724692,0 1.691052,-0.42277 3.023571,-1.7874 4.677217,-2.33861 4.423475,-1.4745 10.5758458,-2.84719 15.2009542,-3.50792 1.5434029,-0.22048 3.1838964,0.448 4.6772168,0 2.5043744,-0.75131 4.5676579,-2.58985 7.0158249,-3.50791 4.0802791,-1.5301 8.7097441,-1.01733 12.8623461,-2.33861 5.173282,-1.64604 9.992713,-4.31468 15.200954,-5.84652 0.858932,-0.25263 6.858836,0.18947 8.185128,0 6.54703,-0.93529 11.939082,-3.0908 18.708868,-2.33861 1.597226,0.17747 3.078138,1.32921 4.677216,1.16931 11.766839,-1.17669 6.200066,-6.20007 8.185129,-8.18513 1.484291,-1.48429 16.362611,2.33096 17.539562,3.50791"
       inkscape:path-effect="#path-effect4" />
    <path
       style="opacity:1;fill:#a3cef1;fill-opacity:0;stroke:url(#linearGradient26);stroke-width:4.99999;stroke-linecap:round;stroke-linejoin:round;stroke-dasharray:none;stroke-opacity:1;paint-order:normal;filter:url(#filter24)"
       d="m -291.15673,178.90354 c 27.55942,17.1637 61.63908,23.55364 93.54433,17.53956 7.51597,-1.41674 14.94052,-3.49606 22.5707,-4.02263 7.63018,-0.52657 15.69877,0.66413 21.86285,5.19193 2.01227,1.47811 3.77842,3.27828 5.84652,4.67722 3.44613,2.33109 7.59411,3.45138 11.73449,3.86008 4.14038,0.4087 8.31658,0.15312 12.46222,-0.19822 8.29129,-0.70269 16.59306,-1.32325 24.91407,-1.32325 h 11.693041 c 1.169305,0 2.338615,0.004 3.507914,0 14.055691,-0.0471 28.058532,-1.60128 42.094949,-2.33861 1.846328,-0.097 3.708496,-0.17909 5.534983,0.10775 1.826487,0.28685 3.635869,0.97069 4.988755,2.23086 0.403413,0.37577 0.761797,0.79798 1.169305,1.1693 1.552155,1.41432 3.715446,1.99376 5.814323,2.05867 2.098876,0.0649 4.182862,-0.32617 6.242839,-0.73359 4.119954,-0.81484 8.2984643,-1.32508 12.4982242,-1.32508 H 49.110775 c 2.380886,0 4.770723,0.1305 7.098343,0.6313 2.327621,0.5008 4.586697,1.30477 6.933307,1.70731 3.842529,0.65915 7.883312,0.1104 11.410889,-1.54963 3.527576,-1.66004 6.525979,-4.42384 8.467281,-7.8048"
       id="path5"
       transform="matrix(0.94672082,0,0,1.0042227,-5.5969684,-0.81775053)"
       inkscape:original-d="m -291.15673,178.90354 c 31.18144,5.84652 62.11205,13.24113 93.54433,17.53956 14.67968,2.00748 32.10563,-7.04931 44.43355,1.1693 2.07658,1.38439 3.57449,3.64448 5.84652,4.67722 9.1187,4.14486 38.80004,2.33861 49.11078,2.33861 3.89768,0 7.79536,0 11.693041,0 1.169304,0 2.462056,0.52293 3.507914,0 6.965053,-3.48253 32.243244,-3.32378 42.094949,-2.33861 2.612866,0.26129 7.831719,1.44127 10.523738,2.33861 0.522928,0.17431 0.623628,1.09135 1.169305,1.1693 7.621006,1.08872 16.826712,0 24.5553862,0 17.9293308,0 35.8586608,0 53.7879918,0 4.771303,0 8.959016,3.35314 14.03165,2.33861 3.386217,-0.67724 19.87817,-14.98209 19.87817,-9.35443"
       inkscape:path-effect="#path-effect5" />
    <path
       style="opacity:1;fill:#a3cef1;fill-opacity:0;stroke:url(#linearGradient28);stroke-width:4.99999;stroke-linecap:round;stroke-linejoin:round;stroke-dasharray:none;stroke-opacity:1;filter:url(#filter26)"
       d="m -266.60136,229.18362 c 20.92682,4.51536 41.98643,8.41528 63.14243,11.69304 6.60763,1.02374 13.48837,1.96957 19.87818,0 2.60224,-0.8021 5.03346,-2.06498 7.49671,-3.22575 2.46325,-1.16078 5.0086,-2.23536 7.70424,-2.62077 2.70495,-0.38674 5.45345,-0.0654 8.18513,0 7.03068,0.16825 14.14732,-1.35898 21.04747,0 4.48466,0.88325 8.63317,2.94333 12.86235,4.67722 9.30649,3.81549 19.2154,6.10781 29.232605,7.01582 12.068099,1.09391 24.320814,0.2014 36.248429,2.33861 15.305618,2.74248 29.329974,10.33504 44.433557,14.03165 5.289711,1.29466 10.7824908,2.10728 16.1823259,1.40091 5.3998351,-0.70638 10.7323461,-3.06456 14.2195831,-7.24743 0.710531,-0.85227 1.369533,-1.79814 2.338609,-2.33861 0.53332,-0.29744 1.143301,-0.45604 1.753956,-0.45604 0.610655,0 1.220636,0.1586 1.753956,0.45604 0.656891,-1.5634 1.944514,-2.85102 3.507912,-3.50791 1.836872,-0.7718 3.917158,-0.67199 5.84652,-1.16931 2.539726,-0.65465 4.687209,-2.30113 7.015827,-3.50791 6.113262,-3.16813 13.764907,-3.16813 19.878169,0"
       id="path6"
       transform="matrix(0.97011756,0,0,1.0019801,-6.4104914,-0.48903023)"
       inkscape:original-d="m -266.60136,229.18362 c 145.4325,23.74408 29.99343,0.64337 63.14243,11.69304 3.00779,1.00259 16.70832,0.52831 19.87818,0 5.27306,-0.87884 9.96509,-4.79935 15.20095,-5.84652 2.67539,-0.53508 5.45675,0 8.18513,0 4.58722,0 15.17245,-0.97917 21.04747,0 4.65908,0.77651 8.53554,3.05466 12.86235,4.67722 8.19158,3.07184 20.51373,6.18545 29.232605,7.01582 1.492268,0.14212 31.059622,0.39281 36.248429,2.33861 11.58558,4.34459 32.312366,13.02155 44.433557,14.03165 10.3190721,0.85992 21.8429091,-0.14052 30.401909,-5.84652 0.917278,-0.61152 1.421331,-1.72709 2.338609,-2.33861 0.972919,-0.64861 2.462055,0.52293 3.507912,0 1.788827,-0.30976 2.028847,-2.76838 3.507912,-3.50791 1.656426,-0.82822 4.152848,-0.60475 5.84652,-1.16931 2.480469,-0.82682 4.436758,-3.07807 7.015827,-3.50791 6.249873,-1.04165 13.537003,0 19.878169,0"
       inkscape:path-effect="#path-effect6" />
    <path
       style="opacity:1;fill:#a3cef1;fill-opacity:0;stroke:url(#linearGradient17);stroke-width:4.99999;stroke-linecap:round;stroke-linejoin:round;stroke-dasharray:none;stroke-opacity:1;filter:url(#filter17)"
       d="m -253.739,14.03165 c 5.70811,8.973473 14.94648,15.633388 25.26406,18.212783 10.31758,2.579395 21.60316,1.05047 30.86254,-4.181132 3.96045,-2.237677 7.55876,-5.118432 11.69304,-7.015826 7.41402,-3.402606 16.06143,-3.424869 23.38608,-7.015825 1.56584,-0.767663 3.05731,-1.69281 4.67722,-2.338608 3.30653,-1.318194 6.97193,-1.404851 10.52373,-1.169304 13.23422,0.877661 25.77729,5.915639 38.58704,9.354433 12.176755,3.268866 24.912613,5.114382 37.417736,3.507912 6.630044,-0.851728 13.201775,-2.668301 19.878169,-2.338608 1.952249,0.09641 3.928221,0.375085 5.846522,0 1.211377,-0.23686 2.355538,-0.727072 3.507912,-1.169304 9.378592,-3.599106 19.676378,-4.11483 29.698847,-3.435363 10.0224696,0.679468 19.933256,2.506204 29.935667,3.435363 10.105265,0.938714 20.298423,0.9577 30.401907,0 3.128853,-0.296581 6.248849,-0.686581 9.354434,-1.169304"
       id="path7"
       inkscape:original-d="m -253.739,14.03165 c 18.70886,4.677217 36.99085,11.639683 56.1266,14.031651 4.04919,0.506148 7.4982,-5.817301 11.69304,-7.015826 7.75868,-2.216766 15.87858,-3.798324 23.38608,-7.015825 1.60216,-0.686639 3.00119,-1.859743 4.67722,-2.338608 3.3937,-0.969629 7.02149,-0.731524 10.52373,-1.169304 17.45095,-2.181369 22.80828,5.973269 38.58704,9.354433 11.151448,2.389595 27.851273,2.772031 37.417736,3.507912 6.95031,0.53464 12.519268,-1.520952 19.878169,-2.338608 1.936922,-0.215213 3.91273,0.241724 5.846522,0 1.223036,-0.15288 2.278089,-1.087316 3.507912,-1.169304 19.494343,-1.299623 40.1463222,0 59.634514,0 4.223287,0 27.951421,1.225244 30.401907,0 2.931396,-1.465697 5.765075,-1.169304 9.354434,-1.169304"
       inkscape:path-effect="#path-effect7" />
    <path
       style="opacity:1;fill:#a3cef1;fill-opacity:0;stroke:url(#linearGradient15);stroke-width:5.00016827;stroke-linecap:round;stroke-linejoin:round;stroke-dasharray:none;stroke-opacity:1;filter:url(#filter19)"
       d="m -228.01431,-22.216779 c 3.67504,2.357144 7.6023,4.320774 11.69304,5.84652 14.82569,5.529622 31.22717,5.131406 46.87218,2.762543 15.64501,-2.368863 30.97414,-6.621506 46.67215,-8.609063 15.88939,-2.011788 32.01348,-1.678988 47.941474,0 3.506183,0.369591 7.090102,0.800048 10.523736,0 3.247089,-0.756583 6.154964,-2.570148 9.354433,-3.507913 3.761742,-1.102567 7.762798,-0.952532 11.67706,-0.740604 3.914262,0.211927 7.893665,0.470966 11.709024,-0.4287 3.59819,-0.848457 6.870473,-2.685479 10.273616,-4.129594 1.701571,-0.722058 3.452099,-1.350821 5.267108,-1.700757 1.815009,-0.349935 3.701881,-0.415117 5.506751,-0.01617 2.7476077,0.607328 5.1387052,2.235946 7.5058156,3.757453 2.3671104,1.521507 4.8926276,3.005144 7.6951392,3.258373 1.5537572,0.140394 3.1208301,-0.107393 4.6772165,0 2.1282627,0.146853 4.2040867,0.977183 5.8465207,2.338609"
       id="path8"
       transform="matrix(0.96189246,0,0,1.0040944,0.62231989,0.09205995)"
       inkscape:original-d="m -228.01431,-22.216779 c 3.89768,1.94884 7.3353,5.84652 11.69304,5.84652 31.24229,0 62.35596,-4.01191 93.54433,-5.84652 15.8595,-0.932912 32.058505,0 47.941474,0 3.507912,0 7.042912,0.435103 10.523736,0 3.304466,-0.413058 6.123686,-2.700225 9.354433,-3.507913 6.205519,-1.551378 18.005266,0.325368 23.386084,-1.169304 10.097396,-2.804832 11.873877,-7.157035 21.047475,-5.846522 4.9018931,0.70027 10.65545101,5.500659 15.2009548,7.015826 1.4790658,0.493022 3.1981507,-0.493022 4.6772165,0 2.7545937,0.918198 2.9898547,2.338609 5.8465207,2.338609"
       inkscape:path-effect="#path-effect8" />
    <path
       style="opacity:1;fill:#a3cef1;fill-opacity:0;stroke:url(#linearGradient40);stroke-width:4.99999;stroke-linecap:round;stroke-linejoin:round;stroke-dasharray:none;filter:url(#filter28)"
       d="m -218.65988,279.46371 c 46.15915,9.44215 93.20617,14.53891 140.316499,15.20095 12.091561,0.16992 24.207635,0.0495 36.24843,1.1693 8.979732,0.83512 18.184842,2.34172 26.893997,0 1.190971,-0.32023 2.362997,-0.7109 3.507912,-1.1693"
       id="path9"
       transform="matrix(0.98169007,0,0,1.0022905,-0.04181555,-0.66032685)"
       inkscape:original-d="m -218.65988,279.46371 c 49.22737,-2.19827 93.28069,9.97474 140.316499,15.20095 12.040939,1.33786 24.276177,-0.0279 36.24843,1.1693 10.414981,1.0415 17.571464,4.66127 26.893997,0 1.810823,-0.90541 1.684148,0.65444 3.507912,-1.1693"
       inkscape:path-effect="#path-effect9" />
  </g>
</svg>
