<?xml version="1.0" encoding="UTF-8" standalone="no"?>
<!-- Created with Inkscape (http://www.inkscape.org/) -->

<svg
   width="210mm"
   height="297mm"
   viewBox="0 0 210 297"
   version="1.1"
   id="svg1"
   xml:space="preserve"
   sodipodi:docname="Планета 1 (2).svg"
   inkscape:version="1.4 (e7c3feb1, 2024-10-09)"
   xmlns:inkscape="http://www.inkscape.org/namespaces/inkscape"
   xmlns:sodipodi="http://sodipodi.sourceforge.net/DTD/sodipodi-0.dtd"
   xmlns:xlink="http://www.w3.org/1999/xlink"
   xmlns="http://www.w3.org/2000/svg"
   xmlns:svg="http://www.w3.org/2000/svg"><sodipodi:namedview
     id="namedview1"
     pagecolor="#ffffff"
     bordercolor="#000000"
     borderopacity="0.25"
     inkscape:showpageshadow="2"
     inkscape:pageopacity="0.0"
     inkscape:pagecheckerboard="0"
     inkscape:deskcolor="#d1d1d1"
     inkscape:document-units="mm"
     showguides="false"
     inkscape:zoom="1.8116515"
     inkscape:cx="490.98847"
     inkscape:cy="273.23136"
     inkscape:window-width="1512"
     inkscape:window-height="855"
     inkscape:window-x="0"
     inkscape:window-y="38"
     inkscape:window-maximized="1"
     inkscape:current-layer="layer1" /><defs
     id="defs1"><linearGradient
       id="linearGradient290"
       inkscape:collect="always"><stop
         style="stop-color:#005850;stop-opacity:1;"
         offset="0.22374429"
         id="stop291" /><stop
         style="stop-color:#005850;stop-opacity:0;"
         offset="1"
         id="stop292" /></linearGradient><linearGradient
       id="linearGradient288"
       inkscape:collect="always"><stop
         style="stop-color:#005850;stop-opacity:1;"
         offset="0.41780823"
         id="stop289" /><stop
         style="stop-color:#005850;stop-opacity:0;"
         offset="1"
         id="stop290" /></linearGradient><linearGradient
       id="linearGradient286"
       inkscape:collect="always"><stop
         style="stop-color:#005850;stop-opacity:1;"
         offset="0.20091324"
         id="stop287" /><stop
         style="stop-color:#005850;stop-opacity:0;"
         offset="1"
         id="stop288" /></linearGradient><linearGradient
       id="linearGradient284"
       inkscape:collect="always"><stop
         style="stop-color:#005850;stop-opacity:1;"
         offset="0.55251139"
         id="stop285" /><stop
         style="stop-color:#005850;stop-opacity:0;"
         offset="1"
         id="stop286" /></linearGradient><linearGradient
       id="linearGradient282"
       inkscape:collect="always"><stop
         style="stop-color:#005850;stop-opacity:1;"
         offset="0.48630136"
         id="stop283" /><stop
         style="stop-color:#005850;stop-opacity:0;"
         offset="1"
         id="stop284" /></linearGradient><linearGradient
       id="linearGradient280"
       inkscape:collect="always"><stop
         style="stop-color:#005850;stop-opacity:1;"
         offset="0.4018265"
         id="stop281" /><stop
         style="stop-color:#005850;stop-opacity:0;"
         offset="1"
         id="stop282" /></linearGradient><linearGradient
       id="linearGradient279"
       inkscape:collect="always"><stop
         style="stop-color:#005850;stop-opacity:1;"
         offset="0.40182647"
         id="stop279" /><stop
         style="stop-color:#005850;stop-opacity:0;"
         offset="1"
         id="stop280" /></linearGradient><inkscape:path-effect
       effect="spiro"
       id="path-effect231"
       is_visible="true"
       lpeversion="1" /><linearGradient
       id="linearGradient229"
       inkscape:collect="always"><stop
         style="stop-color:#f7f7f7;stop-opacity:0.950867;"
         offset="0"
         id="stop230" /><stop
         style="stop-color:#f7f7f7;stop-opacity:0;"
         offset="1"
         id="stop231" /></linearGradient><linearGradient
       id="linearGradient228"
       inkscape:collect="always"><stop
         style="stop-color:#f7f7f7;stop-opacity:0.950867;"
         offset="0"
         id="stop228" /><stop
         style="stop-color:#f7f7f7;stop-opacity:0;"
         offset="1"
         id="stop229" /></linearGradient><radialGradient
       inkscape:collect="always"
       xlink:href="#linearGradient228"
       id="radialGradient229"
       cx="115.16487"
       cy="55.84182"
       fx="115.16487"
       fy="55.84182"
       r="10.291809"
       gradientTransform="matrix(1,0,0,0.95167815,0,2.6983799)"
       gradientUnits="userSpaceOnUse" /><linearGradient
       inkscape:collect="always"
       xlink:href="#linearGradient229"
       id="linearGradient231"
       x1="28.432848"
       y1="-80.032133"
       x2="43.189361"
       y2="-80.032133"
       gradientUnits="userSpaceOnUse" /><filter
       inkscape:collect="always"
       style="color-interpolation-filters:sRGB"
       id="filter231"
       x="-0.079354329"
       y="-0.098724549"
       width="1.1588029"
       height="1.2008101"><feGaussianBlur
         inkscape:collect="always"
         stdDeviation="0.42465827"
         id="feGaussianBlur231" /></filter><linearGradient
       inkscape:collect="always"
       xlink:href="#linearGradient229"
       id="linearGradient232"
       gradientUnits="userSpaceOnUse"
       x1="28.432848"
       y1="-80.032133"
       x2="43.189361"
       y2="-80.032133" /><linearGradient
       inkscape:collect="always"
       xlink:href="#linearGradient229"
       id="linearGradient254"
       gradientUnits="userSpaceOnUse"
       x1="28.432848"
       y1="-80.032133"
       x2="43.189361"
       y2="-80.032133" /><linearGradient
       inkscape:collect="always"
       xlink:href="#linearGradient229"
       id="linearGradient255"
       gradientUnits="userSpaceOnUse"
       x1="28.432848"
       y1="-80.032133"
       x2="43.189361"
       y2="-80.032133" /><linearGradient
       inkscape:collect="always"
       xlink:href="#linearGradient229"
       id="linearGradient256"
       gradientUnits="userSpaceOnUse"
       x1="28.432848"
       y1="-80.032133"
       x2="43.189361"
       y2="-80.032133" /><linearGradient
       inkscape:collect="always"
       xlink:href="#linearGradient229"
       id="linearGradient257"
       gradientUnits="userSpaceOnUse"
       x1="28.432848"
       y1="-80.032133"
       x2="43.189361"
       y2="-80.032133" /><linearGradient
       inkscape:collect="always"
       xlink:href="#linearGradient229"
       id="linearGradient258"
       gradientUnits="userSpaceOnUse"
       x1="28.432848"
       y1="-80.032133"
       x2="43.189361"
       y2="-80.032133" /><filter
       inkscape:collect="always"
       style="color-interpolation-filters:sRGB"
       id="filter258"
       x="-0.12123425"
       y="-0.051034198"
       width="1.237833"
       height="1.1140959"><feGaussianBlur
         inkscape:collect="always"
         stdDeviation="0.10129951"
         id="feGaussianBlur258" /></filter><filter
       inkscape:collect="always"
       style="color-interpolation-filters:sRGB"
       id="filter259"
       x="-0.3443855"
       y="-0.19662548"
       width="1.7026368"
       height="1.4220357"><feGaussianBlur
         inkscape:collect="always"
         stdDeviation="0.24015225"
         id="feGaussianBlur259" /></filter><filter
       inkscape:collect="always"
       style="color-interpolation-filters:sRGB"
       id="filter260"
       x="-0.054524534"
       y="-0.77243495"
       width="1.1064468"
       height="2.5448653"><feGaussianBlur
         inkscape:collect="always"
         stdDeviation="0.39838224"
         id="feGaussianBlur260" /></filter><filter
       inkscape:collect="always"
       style="color-interpolation-filters:sRGB"
       id="filter262"
       x="-0.5878571"
       y="-0.45083149"
       width="2.1295095"
       height="1.9031702"><feGaussianBlur
         inkscape:collect="always"
         stdDeviation="0.54130142"
         id="feGaussianBlur262" /></filter><filter
       inkscape:collect="always"
       style="color-interpolation-filters:sRGB"
       id="filter264"
       x="-0.39259356"
       y="-0.59929892"
       width="1.7856713"
       height="2.239073"><feGaussianBlur
         inkscape:collect="always"
         stdDeviation="0.56362359"
         id="feGaussianBlur264" /></filter><filter
       inkscape:collect="always"
       style="color-interpolation-filters:sRGB"
       id="filter265"
       x="-0.56313823"
       y="-0.37508609"
       width="2.125884"
       height="1.7483152"><feGaussianBlur
         inkscape:collect="always"
         stdDeviation="0.40060092"
         id="feGaussianBlur265" /></filter><filter
       inkscape:collect="always"
       style="color-interpolation-filters:sRGB"
       id="filter266"
       x="-0.29929192"
       y="-1.1374652"
       width="1.6003609"
       height="3.2751538"><feGaussianBlur
         inkscape:collect="always"
         stdDeviation="1.2493499"
         id="feGaussianBlur266" /></filter><filter
       inkscape:collect="always"
       style="color-interpolation-filters:sRGB"
       id="filter267"
       x="-0.38165377"
       y="-0.31347964"
       width="1.7622894"
       height="1.6367046"><feGaussianBlur
         inkscape:collect="always"
         stdDeviation="0.35884237"
         id="feGaussianBlur267" /></filter><filter
       inkscape:collect="always"
       style="color-interpolation-filters:sRGB"
       id="filter268"
       x="-0.52071654"
       y="-0.60392139"
       width="2.0438602"
       height="2.2414012"><feGaussianBlur
         inkscape:collect="always"
         stdDeviation="0.64020837"
         id="feGaussianBlur268" /></filter><filter
       inkscape:collect="always"
       style="color-interpolation-filters:sRGB"
       id="filter269"
       x="-0.42068498"
       y="-0.47110373"
       width="1.8432385"
       height="1.9088653"><feGaussianBlur
         inkscape:collect="always"
         stdDeviation="0.52207762"
         id="feGaussianBlur269" /></filter><filter
       inkscape:collect="always"
       style="color-interpolation-filters:sRGB"
       id="filter270"
       x="-0.36541881"
       y="-0.42099752"
       width="1.730691"
       height="1.8379603"><feGaussianBlur
         inkscape:collect="always"
         stdDeviation="0.56440827"
         id="feGaussianBlur270" /></filter><filter
       inkscape:collect="always"
       style="color-interpolation-filters:sRGB"
       id="filter271"
       x="-0.51730046"
       y="-0.32310508"
       width="2.0345371"
       height="1.6450455"><feGaussianBlur
         inkscape:collect="always"
         stdDeviation="0.21601023"
         id="feGaussianBlur271" /></filter><filter
       inkscape:collect="always"
       style="color-interpolation-filters:sRGB"
       id="filter272"
       x="-0.43417391"
       y="-0.53629891"
       width="1.8966302"
       height="2.0609631"><feGaussianBlur
         inkscape:collect="always"
         stdDeviation="0.54302066"
         id="feGaussianBlur272" /></filter><radialGradient
       inkscape:collect="always"
       xlink:href="#linearGradient279"
       id="radialGradient280"
       cx="41.032169"
       cy="120.95918"
       fx="41.032169"
       fy="120.95918"
       r="1.1198508"
       gradientTransform="matrix(1,0,0,1.4476135,0,-54.142959)"
       gradientUnits="userSpaceOnUse" /><radialGradient
       inkscape:collect="always"
       xlink:href="#linearGradient280"
       id="radialGradient282"
       cx="123.13973"
       cy="54.918221"
       fx="123.13973"
       fy="54.918221"
       r="0.6831367"
       gradientTransform="matrix(1,0,0,1.1959891,0,-10.763373)"
       gradientUnits="userSpaceOnUse" /><radialGradient
       inkscape:collect="always"
       xlink:href="#linearGradient282"
       id="radialGradient284"
       cx="119.17893"
       cy="58.381699"
       fx="119.17893"
       fy="58.381699"
       r="0.31014743"
       gradientTransform="matrix(1,0,0,1.0880839,0,-5.1424856)"
       gradientUnits="userSpaceOnUse" /><radialGradient
       inkscape:collect="always"
       xlink:href="#linearGradient284"
       id="radialGradient286"
       cx="53.006329"
       cy="115.08352"
       fx="53.006329"
       fy="115.08352"
       r="0.91431254"
       gradientTransform="matrix(1,0,0,1.3575059,0,-41.143042)"
       gradientUnits="userSpaceOnUse" /><radialGradient
       inkscape:collect="always"
       xlink:href="#linearGradient286"
       id="radialGradient288"
       cx="-140.25348"
       cy="-22.485039"
       fx="-140.25348"
       fy="-22.485039"
       r="0.83719623"
       gradientTransform="matrix(1,0,0,0.76544598,0,-5.2739562)"
       gradientUnits="userSpaceOnUse" /><radialGradient
       inkscape:collect="always"
       xlink:href="#linearGradient288"
       id="radialGradient290"
       cx="116.58154"
       cy="-27.523184"
       fx="116.58154"
       fy="-27.523184"
       r="0.60000002"
       gradientTransform="matrix(1,0,0,1.3883333,0,10.688168)"
       gradientUnits="userSpaceOnUse" /><radialGradient
       inkscape:collect="always"
       xlink:href="#linearGradient290"
       id="radialGradient292"
       cx="114.5965"
       cy="53.905819"
       fx="114.5965"
       fy="53.905819"
       r="0.31014743"
       gradientTransform="matrix(1,0,0,1.0880839,0,-4.7482328)"
       gradientUnits="userSpaceOnUse" /></defs><g
     inkscape:label="Шар 1"
     inkscape:groupmode="layer"
     id="layer1"><path
       style="opacity:0.955026;mix-blend-mode:normal;fill:#4fe499;fill-opacity:1;stroke:url(#linearGradient254);stroke-width:0.264583;stroke-linejoin:bevel;stroke-opacity:0.950867;filter:url(#filter231)"
       id="path254"
       sodipodi:type="arc"
       sodipodi:cx="35.810421"
       sodipodi:cy="-81.085869"
       sodipodi:rx="7.2466488"
       sodipodi:ry="6.6782842"
       sodipodi:start="0"
       sodipodi:end="3.9032329"
       sodipodi:open="true"
       sodipodi:arc-type="arc"
       d="m 43.05707,-81.085869 a 7.2466488,6.6782842 0 0 1 -5.315705,6.436837 7.2466488,6.6782842 0 0 1 -8.148553,-3.006514 7.2466488,6.6782842 0 0 1 0.973173,-8.03907"
       transform="rotate(114.99466,30.258471,11.337822)" /><ellipse
       style="opacity:0.9973545;fill:#4ce498;fill-opacity:1;stroke:url(#radialGradient229);stroke-width:0.264583;stroke-linejoin:bevel;stroke-opacity:0.950867"
       id="path227"
       cx="115.16487"
       cy="55.84182"
       rx="10.159517"
       ry="9.6621981" /><path
       style="opacity:0.955026;mix-blend-mode:normal;fill:#4fe499;fill-opacity:1;stroke:url(#linearGradient231);stroke-width:0.264583;stroke-linejoin:bevel;stroke-opacity:0.950867;filter:url(#filter231)"
       id="path229"
       sodipodi:type="arc"
       sodipodi:cx="35.810421"
       sodipodi:cy="-81.085869"
       sodipodi:rx="7.2466488"
       sodipodi:ry="6.6782842"
       sodipodi:start="0"
       sodipodi:end="3.9032329"
       sodipodi:open="true"
       sodipodi:arc-type="arc"
       d="m 43.05707,-81.085869 a 7.2466488,6.6782842 0 0 1 -5.315705,6.436837 7.2466488,6.6782842 0 0 1 -8.148553,-3.006514 7.2466488,6.6782842 0 0 1 0.973173,-8.03907"
       transform="rotate(114.99466,30.748075,11.000506)" /><path
       style="opacity:0.955026;mix-blend-mode:normal;fill:#4fe499;fill-opacity:1;stroke:url(#linearGradient232);stroke-width:0.264583;stroke-linejoin:bevel;stroke-opacity:0.950867;filter:url(#filter231)"
       id="path231"
       sodipodi:type="arc"
       sodipodi:cx="35.810421"
       sodipodi:cy="-81.085869"
       sodipodi:rx="7.2466488"
       sodipodi:ry="6.6782842"
       sodipodi:start="0"
       sodipodi:end="3.9032329"
       sodipodi:open="true"
       sodipodi:arc-type="arc"
       d="m 43.05707,-81.085869 a 7.2466488,6.6782842 0 0 1 -5.315705,6.436837 7.2466488,6.6782842 0 0 1 -8.148553,-3.006514 7.2466488,6.6782842 0 0 1 0.973173,-8.03907"
       transform="matrix(0.42253379,0.90634717,0.90634717,-0.42253379,174.02748,-9.662194)" /><path
       style="opacity:0.486772;fill:#00ff00;fill-opacity:1;stroke:#8ee68e;stroke-width:0.264583;stroke-linejoin:bevel;stroke-opacity:0.950867"
       d="m 115.09252,59.430141 c 0.10048,1.31453 0.0552,2.648416 0.30142,3.943588 0.14314,0.753031 0.56218,1.42629 0.85403,2.135066 0.01,0.02323 0.0529,0.01124 0.0754,0 0.24433,-0.122168 0.5681,-0.405442 0.77866,-0.577723 0.18878,-0.154456 0.48399,-0.393602 0.57773,-0.627959 0.0549,-0.137298 0.0834,-0.286478 0.12559,-0.427014 0.0647,-0.215704 0.17566,-0.42668 0.2763,-0.627959 0.10009,-0.200176 0.11935,-0.140084 0.30142,-0.376778 0.0161,-0.02098 0.009,-0.05445 0.0251,-0.07536 0.0436,-0.05608 0.10523,-0.09613 0.15071,-0.150709 0.0386,-0.04638 0.0628,-0.103563 0.10048,-0.150709 0.0764,-0.09546 0.25118,-0.186066 0.25118,-0.326541"
       id="path247" /><path
       style="opacity:0.955026;mix-blend-mode:normal;fill:#4fe499;fill-opacity:1;stroke:url(#linearGradient255);stroke-width:0.264583;stroke-linejoin:bevel;stroke-opacity:0.950867;filter:url(#filter231)"
       id="path253"
       sodipodi:type="arc"
       sodipodi:cx="35.810421"
       sodipodi:cy="-81.085869"
       sodipodi:rx="7.2466488"
       sodipodi:ry="6.6782842"
       sodipodi:start="0"
       sodipodi:end="3.9032329"
       sodipodi:open="true"
       sodipodi:arc-type="arc"
       d="m 43.05707,-81.085869 a 7.2466488,6.6782842 0 0 1 -5.315705,6.436837 7.2466488,6.6782842 0 0 1 -8.148553,-3.006514 7.2466488,6.6782842 0 0 1 0.973173,-8.03907"
       transform="matrix(0.42253379,0.90634717,0.90634717,-0.42253379,171.54088,-7.9571028)" /><path
       style="opacity:0.955026;mix-blend-mode:normal;fill:#4fe499;fill-opacity:1;stroke:url(#linearGradient256);stroke-width:0.264583;stroke-linejoin:bevel;stroke-opacity:0.950867;filter:url(#filter231)"
       id="path252"
       sodipodi:type="arc"
       sodipodi:cx="35.810421"
       sodipodi:cy="-81.085869"
       sodipodi:rx="7.2466488"
       sodipodi:ry="6.6782842"
       sodipodi:start="0"
       sodipodi:end="3.9032329"
       sodipodi:open="true"
       sodipodi:arc-type="arc"
       d="m 43.05707,-81.085869 a 7.2466488,6.6782842 0 0 1 -5.315705,6.436837 7.2466488,6.6782842 0 0 1 -8.148553,-3.006514 7.2466488,6.6782842 0 0 1 0.973173,-8.03907"
       transform="rotate(114.99466,33.064168,14.224177)" /><path
       style="opacity:0.0026455;fill:#00ff00;fill-opacity:1;stroke:#6f6f6f;stroke-width:0.264583;stroke-linejoin:bevel;stroke-opacity:0.950867"
       id="path232"
       d="m 106.56111,53.842507 c 0.006,-0.01124 0.0112,-0.02315 0.0184,-0.03373 0.0141,-0.02061 0.0507,-0.05877 0.0657,-0.07589 0.0482,-0.05513 0.0944,-0.110953 0.14472,-0.164205 0.10581,-0.110631 0.23545,-0.192307 0.36031,-0.279022 0.0483,-0.02862 0.0927,-0.07411 0.14686,-0.09252 0.0166,-0.0056 0.0329,-0.0041 0.05,-0.004 0.10669,0.0036 0.21334,-0.004 0.31991,-0.0079 0.17912,-7.94e-4 0.35832,-0.0039 0.53738,0.0016 0.16418,-0.0066 0.32459,0.02257 0.47773,0.07998 0.13426,0.05692 0.27751,0.086 0.41549,0.131529 0.19151,0.035 0.38267,0.07176 0.57475,0.10355 0.12305,0.02138 0.24274,0.05598 0.36284,0.08982 0.0378,0.01079 0.0785,0.009 0.11634,0.01953 0.0172,0.0048 0.0328,0.01439 0.0496,0.02035 0.0525,0.01855 0.10246,0.02885 0.15768,0.03334 0.11423,0.0057 0.22879,0.01029 0.3432,0.0091 0.10784,0.0027 0.21555,-7.94e-4 0.32331,-0.0039 0.11166,-0.0069 0.22452,0.01492 0.33515,-0.0029 0.0839,-0.02984 0.17075,-0.05774 0.25017,-0.09846 0.0255,-0.01344 0.0505,-0.02032 0.079,-0.02087 0.008,-1.64e-4 0.0166,0.0016 0.0246,-9.3e-5 0.0241,-0.0053 0.041,-0.01876 0.0613,-0.03166 0.008,-0.0038 0.0166,-0.0069 0.0244,-0.01138 0.009,-0.0053 0.017,-0.01294 0.0265,-0.01775 0.0233,-0.01185 0.0488,-0.0062 0.0733,-0.01164 0.0116,-0.0026 0.0226,-0.0077 0.0339,-0.01154 0.0739,-0.0149 0.14964,-0.015 0.2247,-0.01445 0.0838,7.94e-4 0.16765,-0.0013 0.25148,-1.14e-4 0.0934,-0.0013 0.18682,-0.0011 0.28021,2.65e-4 0.10614,-0.01228 0.20475,0.02074 0.30549,0.04814 0.058,0.01799 0.11271,0.04393 0.1688,0.06633 0.0495,0.01976 0.0918,0.03205 0.13949,0.05749 0.0169,0.0074 0.0333,0.01622 0.0508,0.02233 0.0196,0.0069 0.04,0.01093 0.06,0.01638 0.0201,0.0067 0.0403,0.01273 0.0601,0.01998 0.0795,0.02907 0.15715,0.06077 0.2376,0.08768 0.19619,0.07356 0.39386,0.14519 0.59567,0.201861 0.10693,0.04225 0.22264,0.0544 0.33651,0.06237 0.0562,0.0033 0.11379,-0.0073 0.16989,-0.0029 0.0275,0.0021 0.0542,0.0097 0.0814,0.01394 0.0927,0.0093 0.1863,0.0099 0.27937,0.0064 0.0994,2.09e-4 0.19889,0.0036 0.29833,0.0021 0.095,-0.0041 0.19053,0.0074 0.28471,-0.0072 0.0134,-0.0021 0.0268,-0.0042 0.0402,-0.0061 0.0784,-0.01101 0.10151,-0.04147 0.1664,-0.07763 0.0204,-0.01619 0.0407,-0.0374 0.0676,-0.04216 0.0331,-0.0058 0.015,0.0097 0.0582,-0.0061 0.0647,-0.05687 0.1275,-0.07314 0.2107,-0.08304 0.12312,-0.02918 0.25047,-0.03309 0.37637,-0.03849 0.206,-0.01013 0.41231,-0.0037 0.61817,-0.01516 0.24254,-0.007 0.48485,0.0096 0.72739,0.0063 0.22148,0.0019 0.44303,-0.0024 0.66448,-1.14e-4 0.24484,-0.01564 0.49074,-0.0062 0.73435,0.02103 0.0991,0.01259 0.19914,0.01577 0.29863,0.02426 0.0309,0.0026 0.0617,0.0075 0.0927,0.0096 0.0696,0.0046 0.13934,0.0052 0.20898,0.0085 0.20919,0.0035 0.41665,0.02964 0.62498,0.046 0.22708,0.01439 0.45499,0.01315 0.68251,0.01283 0.21809,0.0051 0.43628,0.0016 0.65429,0.0094 0.13956,0.006 0.27922,0.0058 0.41882,0.0096 0.11084,0.0049 0.2214,-5.29e-4 0.33221,-0.0026 0.0934,0.0013 0.18717,-0.0051 0.28053,-0.003 0.0513,0.0011 0.10249,0.0068 0.15375,0.01 0.14519,0.01217 0.29089,0.01376 0.43645,0.01849 0.10612,0.0058 0.21238,0.0052 0.31857,0.0027 0.15158,-0.0048 0.30197,0.01889 0.45254,0.03306 0.11375,0.01048 0.22745,0.0196 0.34163,0.02286 0.0899,0.0024 0.17925,-0.0061 0.26923,-0.0052 0.0794,0.0019 0.15879,0.005 0.2382,0.0068 0.0356,7.94e-4 0.0713,0.0011 0.10692,0.0013 0,0 -1.59865,-1.161465 -1.59865,-1.161465 v 0 c -0.0346,1.91e-4 -0.0691,5.29e-4 -0.10369,0.0013 -0.073,0.0019 -0.14596,0.0053 -0.21897,0.0073 -0.0929,0.0011 -0.18526,-0.0062 -0.27814,-0.0064 -0.10087,-0.0011 -0.20188,-0.0026 -0.30251,-0.01013 -0.1602,-0.01259 -0.3203,-0.03125 -0.48107,-0.03332 -0.10331,-0.0024 -0.20664,-0.0034 -0.30997,-7.94e-4 -0.14011,-5.29e-4 -0.2798,-0.0081 -0.41976,-0.01418 -0.1505,-0.0064 -0.30109,-0.0055 -0.45169,-0.0073 -0.11313,-0.0019 -0.22604,-0.0074 -0.33918,-0.0024 -0.13061,0.0038 -0.26127,0.0036 -0.39182,0.01013 -0.20928,0.0088 -0.41884,0.0047 -0.62826,0.007 -0.22956,-0.005 -0.45883,-0.01109 -0.6875,-0.03379 -0.20805,-0.01873 -0.41604,-0.03426 -0.62489,-0.04081 -0.20049,-0.01529 -0.40051,-0.03638 -0.60156,-0.04475 -0.2461,-0.0059 -0.4922,0.005 -0.73812,-0.0078 -0.2216,0.0024 -0.44331,-0.0021 -0.66495,-2.64e-4 -0.23714,-0.0033 -0.47404,0.01267 -0.7112,0.0056 -0.2194,-0.01048 -0.4391,-0.0068 -0.65873,-0.0056 -0.14255,0.0046 -0.2848,0.01188 -0.42398,0.0456 -0.0507,0.01455 -0.0573,0.01492 -0.10608,0.03506 -0.0326,0.01347 -0.0782,0.04087 -0.11172,0.04962 -0.006,0.0016 -0.0129,-7.94e-4 -0.0193,-0.0011 -0.0578,0.01315 -0.0968,0.05497 -0.14712,0.08263 -0.008,0.0042 -0.016,0.0096 -0.0246,0.0127 -0.0321,0.01161 -0.0918,-0.0016 -0.12608,0.0095 -0.0904,-0.0034 -0.18078,0.0013 -0.27118,-0.0011 -0.0967,-0.0013 -0.1935,0.0019 -0.29021,-0.0013 -0.0934,-0.007 -0.18683,-0.01363 -0.27988,-0.0249 -0.0842,-0.0032 -0.16929,0.0026 -0.25261,-0.01381 -0.0982,-0.01413 -0.1923,-0.04225 -0.28781,-0.06845 -0.19016,-0.05568 -0.37846,-0.116332 -0.56061,-0.195167 -0.14875,-0.06276 -0.30003,-0.118777 -0.44725,-0.184865 -0.10483,-0.03413 -0.20871,-0.07141 -0.31779,-0.09029 -0.11574,-0.02344 -0.23182,-0.02736 -0.34971,-0.02532 -0.0934,0.0016 -0.1868,0.0013 -0.28016,-2.22e-4 -0.0872,0.0013 -0.17457,-0.0019 -0.26157,0.0055 -0.0857,0.0096 -0.17128,0.02114 -0.25404,0.0465 -0.0636,0.01331 -0.11819,0.04656 -0.17835,0.06934 -0.0592,0.0028 -0.10828,0.03456 -0.15987,0.06111 -0.0661,0.02358 -0.13143,0.05333 -0.20335,0.04647 -0.10382,-0.0047 -0.2077,0.0076 -0.31162,0.0038 -0.10968,-0.0027 -0.21929,-0.0051 -0.32903,-0.0049 -0.10837,-0.005 -0.21774,-0.0068 -0.32277,-0.03759 -0.0485,-0.01603 -0.0981,-0.03257 -0.14826,-0.04285 -0.0557,-0.01143 -0.11302,-0.01619 -0.1667,-0.037 -0.1168,-0.02734 -0.23415,-0.04818 -0.35384,-0.05835 -0.19346,-0.02604 -0.38579,-0.0657 -0.56908,-0.134159 -0.13743,-0.03806 -0.27256,-0.08349 -0.41,-0.121402 -0.16674,-0.03173 -0.33598,-0.04023 -0.50559,-0.03645 -0.17905,0.0052 -0.3582,2.64e-4 -0.5373,0 -0.13141,-0.0032 -0.26835,-0.01606 -0.39426,0.02994 -0.0807,0.043 -0.1469,0.104379 -0.21317,0.166876 -0.11752,0.104338 -0.23979,0.203126 -0.35597,0.308964 -0.0936,0.0885 -0.18661,0.178142 -0.28611,0.259996 z" /><path
       style="opacity:0.61111111;fill:#00ffe9;fill-opacity:1;stroke:#8ee68e;stroke-width:0.264583;stroke-linejoin:bevel;stroke-opacity:0.950867;filter:url(#filter260)"
       d="m 105.32146,53.728265 c 0.17939,-0.313926 0.004,-0.05384 0.25119,-0.301421 0.0132,-0.01323 0.01,-0.03985 0.0251,-0.05024 0.0139,-0.0093 0.0347,0.0062 0.0502,0 0.0784,-0.03134 0.14642,-0.09904 0.22607,-0.125592 0.0716,-0.02384 0.26285,-0.08632 0.32654,-0.100473 0.0863,-0.01918 0.21124,0 0.30142,0 0.0635,0 0.25528,-0.02307 0.30142,0 0.007,0.0038 -0.008,0.0231 0,0.02511 0.0759,0.01897 0.0948,-0.0029 0.15071,0.02511 0.0212,0.01058 0.0278,0.04275 0.0502,0.05024 0.0345,0.01151 0.23992,0.03897 0.25118,0.05024 0.0119,0.01183 -0.007,0.03526 0,0.05024 0.004,0.0075 0.0172,-0.0026 0.0251,0 0.0178,0.0059 0.0347,0.01474 0.0502,0.02511 0.0351,0.02342 0.0651,0.03254 0.10047,0.05024 0.0212,0.01058 0.0278,0.04275 0.0502,0.05024 0.0159,0.0053 0.0353,-0.0075 0.0502,0 0.0212,0.01058 0.029,0.03965 0.0502,0.05024 0.015,0.0075 0.0344,-0.0053 0.0502,0 0.0225,0.0075 0.0291,0.03965 0.0502,0.05024 0.0463,0.02312 0.12439,-5.29e-4 0.17583,0.02511 0.06,0.02999 0.10261,0.08583 0.17583,0.100473 0.16047,0.0321 0.36359,0 0.52748,0 0.0931,0 0.21161,-0.01797 0.30142,0 0.0422,0.0084 0.12623,0.04992 0.17583,0.02511 0.13663,-0.06832 0.33792,0.02133 0.47725,-0.02511 0.0561,-0.01871 0.12603,-0.08802 0.17583,-0.100473 0.0406,-0.01016 0.0843,0.0069 0.12559,0 0.108,-0.01799 0.0661,-0.05816 0.15071,-0.100473 0.03,-0.01498 0.0705,0.01497 0.10048,0 0.007,-0.0038 -0.007,-0.02138 0,-0.02511 0.0344,-0.0172 0.0909,-0.0078 0.12559,-0.02511 0.0167,-0.0084 0.008,-0.04186 0.0251,-0.05024 0.0536,-0.02679 0.57613,0 0.67819,0 0.25956,0 0.51912,0 0.77867,0 0.1275,0 0.27638,-0.02093 0.4019,0 0.0688,0.01148 0.18652,0.04765 0.25118,0.07536 0.0277,0.01191 0.0476,0.03835 0.0754,0.05024 0.0317,0.0136 0.0682,0.01299 0.10047,0.02511 0.10192,0.03822 0.1995,0.08737 0.30142,0.125592 0.10386,0.03895 0.28453,0.08922 0.37678,0.15071 0.044,0.02935 0.12757,0.134625 0.17583,0.150709 0.0159,0.0053 0.0335,0 0.0502,0 0.0251,0.0084 0.0508,0.01529 0.0754,0.02511 0.0174,0.007 0.0335,0.01675 0.0502,0.02511 0.0168,0.01675 0.0291,0.03964 0.0502,0.05024 0.0347,0.01736 0.0882,0.01265 0.12559,0.02511 0.0649,0.02164 0.13072,0.07706 0.20095,0.100476 0.0364,0.01212 0.0919,0.01164 0.12559,0.02511 0.028,0.01122 0.0471,0.03964 0.0754,0.05024 0.23485,0.08807 0.53209,0.09271 0.77867,0.125593 0.0778,0.01037 0.73476,0.06487 0.85402,0.02511 0.064,-0.02135 0.11316,-0.0754 0.17583,-0.100475 0.10823,-0.04329 0.21857,-0.0824 0.32654,-0.12559 0.045,-0.01799 0.10439,-0.01355 0.15071,-0.02511 0.1261,-0.03153 0.25283,-0.06133 0.37678,-0.100473 0.11432,-0.0361 0.21364,-0.110392 0.32654,-0.150712 0.14737,-0.05263 0.30923,-0.08476 0.45213,-0.150709 0.0613,-0.02829 0.11545,-0.07029 0.17583,-0.100473 0.12846,-0.06423 0.26913,-0.100925 0.40189,-0.150712 0.0792,-0.02969 0.13072,-0.09048 0.20095,-0.125592 0.15492,-0.07746 0.31549,-0.117007 0.47725,-0.175829 0.0424,-0.0154 0.0812,-0.04217 0.12559,-0.05024 0.0494,-0.009 0.10065,0.0042 0.15071,0 0.16771,-0.01397 0.33471,-0.03566 0.50237,-0.05024 0.19337,-0.0168 0.38422,-0.06326 0.57772,-0.07536 0.28195,-0.01762 0.57141,0 0.85403,0 0.0983,0 0.72938,-0.02976 0.80379,0 0.022,0.0088 0.0302,0.03769 0.0502,0.05024 0.0476,0.02977 0.0986,0.0545 0.15072,0.07536 0.0976,0.03904 0.2029,0.06353 0.30142,0.100472 0.41719,0.156449 -0.16426,-0.04528 0.17583,0.100476 0.0872,0.03736 0.17285,0.02313 0.25118,0.07535 0.0197,0.01315 0.0305,0.0371 0.0502,0.05024 0.0623,0.04154 0.13673,0.06194 0.20094,0.100473 0.0492,0.02954 0.0778,0.09371 0.1256,0.125593 0.0355,0.02368 0.0874,0.006 0.12559,0.02511 0.007,0.0038 -0.007,0.02138 0,0.02511 0.0201,0.01005 0.0553,-0.01005 0.0754,0 0.0335,0.01675 0.0693,0.02947 0.10048,0.05024 0.007,0.0046 -0.008,0.02373 0,0.02511 0.0991,0.01651 0.20094,0 0.30142,0 0.23443,0 0.46887,0 0.70331,0 0.009,0 0.11598,0.0096 0.12559,0 0.006,-0.0059 -0.006,-0.01921 0,-0.02511 0.0128,-0.01275 0.1147,-0.06446 0.1256,-0.07536 0.0443,-0.04434 -1.3e-4,-0.09202 0.0502,-0.125592 0.0156,-0.0104 0.0321,-0.02058 0.0502,-0.02511 0.0162,-0.0041 0.0384,0.01183 0.0502,0 0.0118,-0.01183 -0.005,-0.03435 0,-0.05024 0.0126,-0.03789 0.11451,-0.125592 0.12559,-0.125592"
       id="path235" /><path
       style="opacity:0.75396825;fill:#00ffb6;fill-opacity:1;stroke:#8edce6;stroke-width:0.264583;stroke-linejoin:bevel;stroke-opacity:0.950867;filter:url(#filter269)"
       d="m 120.04085,51.969976 c -0.16595,-0.608467 -0.22789,-0.695907 0.10047,-1.632696 0.14062,-0.40119 0.43735,-0.729774 0.6782,-1.080092 0.0311,-0.04521 0.17719,-0.156097 0.25118,-0.175829 0.0905,-0.02413 0.18376,-0.06432 0.2763,-0.05024 0.57653,0.08773 1.65821,0.378352 1.83365,1.080093 0.01,0.03924 0,0.106788 0,0.150709"
       id="path239" /><path
       style="opacity:0.486772;fill:#00ffd4;fill-opacity:1;stroke:#8ee68e;stroke-width:0.264583;stroke-linejoin:bevel;stroke-opacity:0.950867;filter:url(#filter267)"
       d="m 113.68589,46.494165 c -0.53586,0.443756 -1.25435,0.731859 -1.60758,1.331275 -0.25094,0.425839 -0.17011,1.002464 -0.0502,1.481984 0.0427,0.170773 0.31148,0.166862 0.47725,0.226068 0.10916,0.03899 0.55065,0.02511 0.60284,0.02511 0.37677,0 0.75355,0 1.13033,0 0.067,0 0.13396,0 0.20094,0 0.0251,0 0.0576,0.01775 0.0754,0 0.0178,-0.01775 0,-0.05024 0,-0.07536"
       id="path240" /><path
       style="opacity:0.486772;fill:#00fbff;fill-opacity:1;stroke:#8ee68e;stroke-width:0.264583;stroke-linejoin:bevel;stroke-opacity:0.950867;filter:url(#filter259)"
       d="m 124.26074,56.993657 c -0.14991,0.449723 -0.43159,1.271939 -0.52749,1.682933 -0.23589,0.177035 -0.0229,0.386365 -0.0502,0.577723 -0.0211,0.147404 -0.0579,0.125396 -0.12559,0.301421 -0.0781,0.390461 0.0319,-0.03864 -0.0754,0.175829 -0.007,0.01497 0.009,0.0363 0,0.05024 -0.0104,0.01558 -0.0398,0.0096 -0.0502,0.02511 -0.009,0.01394 0.0118,0.03839 0,0.05024 -0.0187,0.01873 -0.0542,0.0092 -0.0754,0.02511 -0.03,0.02246 -0.0191,0.0797 -0.0502,0.100476 -0.0139,0.0093 -0.0384,-0.01185 -0.0502,0 -0.0209,0.02093 -0.004,0.07954 -0.0251,0.100473 -0.0152,0.01519 -0.31289,0.02511 -0.32654,0.02511 -0.0101,0 -0.30889,0.04277 -0.32654,0.02511 -0.006,-0.0059 0.005,-0.01815 0,-0.02511 -0.0383,-0.05737 -0.0828,-0.05771 -0.12559,-0.100473 -0.0187,-0.01873 -0.0104,-0.05332 -0.0251,-0.07536 -0.009,-0.01378 -0.11561,-0.140729 -0.1256,-0.150709"
       id="path250" /><path
       style="opacity:0.955026;mix-blend-mode:normal;fill:#4fe499;fill-opacity:1;stroke:url(#linearGradient258);stroke-width:0.264583;stroke-linejoin:bevel;stroke-opacity:0.950867;filter:url(#filter231)"
       id="path256"
       sodipodi:type="arc"
       sodipodi:cx="35.810421"
       sodipodi:cy="-81.085869"
       sodipodi:rx="7.2466488"
       sodipodi:ry="6.6782842"
       sodipodi:start="0"
       sodipodi:end="3.9032329"
       sodipodi:open="true"
       sodipodi:arc-type="arc"
       d="m 43.05707,-81.085869 a 7.2466488,6.6782842 0 0 1 -5.315705,6.436837 7.2466488,6.6782842 0 0 1 -8.148553,-3.006514 7.2466488,6.6782842 0 0 1 0.973173,-8.03907"
       transform="rotate(-65.00534,184.91702,-75.093926)" /><path
       style="opacity:0.955026;mix-blend-mode:normal;fill:#4fe499;fill-opacity:1;stroke:url(#linearGradient257);stroke-width:0.264583;stroke-linejoin:bevel;stroke-opacity:0.950867;filter:url(#filter231)"
       id="path257"
       sodipodi:type="arc"
       sodipodi:cx="35.810421"
       sodipodi:cy="-81.085869"
       sodipodi:rx="7.2466488"
       sodipodi:ry="6.6782842"
       sodipodi:start="0"
       sodipodi:end="3.9032329"
       sodipodi:open="true"
       sodipodi:arc-type="arc"
       d="m 43.05707,-81.085869 a 7.2466488,6.6782842 0 0 1 -5.315705,6.436837 7.2466488,6.6782842 0 0 1 -8.148553,-3.006514 7.2466488,6.6782842 0 0 1 0.973173,-8.03907"
       transform="matrix(-0.42253379,-0.90634717,-0.90634717,0.42253379,54.958798,122.30248)" /><path
       style="opacity:0.486772;fill:#00ff00;fill-opacity:1;stroke:#8ee68e;stroke-width:0.264583;stroke-linejoin:bevel;stroke-opacity:0.950867;filter:url(#filter266)"
       d="m 105.74848,51.91974 c 0.27926,-0.472604 0.84238,-1.478973 1.20568,-1.682933 0.80574,-0.45235 1.87344,-0.46941 2.78814,-0.527486 1.80132,-0.114372 -0.0755,-0.01323 1.33128,-0.05024 0.13418,-0.0035 0.27027,-0.05144 0.40189,-0.02511 0.0526,0.0105 0.0806,0.07581 0.10048,0.125592 0.0261,0.06513 0,0.5447 0,0.678196 0,0.07392 0.0502,0.07679 0.0502,0.150709 0.0294,0.307492 -0.006,0.64882 0.0754,0.954496 0.008,0.02917 0.034,0.04989 0.0502,0.07536 0.0424,0.06664 0.0717,0.143202 0.12559,0.200947 0.0651,0.06979 0.14921,0.119199 0.22606,0.175829 0.34033,0.250767 0.70324,0.376776 1.13033,0.376776 0.067,0 0.13641,0.01793 0.20095,0 0.0902,-0.02505 0.16863,-0.08147 0.25118,-0.125592 0.4031,-0.215451 0.80391,-0.435166 1.20569,-0.653079 0.5871,-0.318427 0.15606,-0.07559 1.10521,-0.753552 0.15196,-0.108542 0.15071,-0.217948 0.15071,-0.401894"
       id="path237" /><path
       style="opacity:0.486772;fill:#00ff00;fill-opacity:1;stroke:#8ee68e;stroke-width:0.264583;stroke-linejoin:bevel;stroke-opacity:0.950867;filter:url(#filter268)"
       d="m 116.4238,50.714055 c 0.26343,0.737618 0.72774,2.07101 1.05497,2.361131 0.51024,0.452376 1.44292,0.217691 2.00947,-0.02511 0.0414,-0.01775 0.0393,-0.08185 0.0502,-0.125593 0.0802,-0.320926 0.0753,-0.627006 0.0753,-0.954497"
       id="path238" /><path
       style="opacity:0.486772;fill:#00ff00;fill-opacity:1;stroke:#8ee68e;stroke-width:0.264583;stroke-linejoin:bevel;stroke-opacity:0.950867;filter:url(#filter272)"
       d="m 114.74087,47.649611 c 0.51911,0.1842 1.0699,0.296058 1.55734,0.552603 0.47719,0.251156 0.88574,0.616794 1.30615,0.954501 0.0853,0.06851 0.29608,0.296875 0.22607,0.401894 -0.0632,0.09476 -0.18267,0.136125 -0.27631,0.200948 -0.175,0.121156 -0.16458,0.103013 -0.37677,0.200946 -0.0443,0.02045 -0.0812,0.05515 -0.12559,0.07536 -0.12909,0.05868 -0.26352,0.08145 -0.37678,0.175829 -0.0322,0.0268 -0.0457,0.07087 -0.0754,0.100473"
       id="path241" /><path
       style="opacity:0.486772;fill:#00ffb1;fill-opacity:1;stroke:#8ee68e;stroke-width:0.264583;stroke-linejoin:bevel;stroke-opacity:0.950867;filter:url(#filter265)"
       d="m 105.99966,58.726826 c -0.0847,-0.06417 -0.0202,0.51426 -0.10047,0.401894 -0.0792,-0.110911 -0.0667,-0.265869 -0.0754,-0.401894 -0.025,-0.392819 -0.0186,-0.787008 -0.0251,-1.180566 -0.002,-0.108831 -0.0179,-0.219172 0,-0.326538 0.0425,-0.254804 0.23572,-0.63151 0.45213,-0.778671 0.17581,-0.119547 0.56318,-0.26511 0.80379,-0.200946 0.1881,0.05016 0.5272,0.350525 0.57772,0.552604 0.0287,0.114958 -0.0507,-0.02612 0.0251,0.125592 0.0498,0.0997 0.008,-0.111014 0.0502,0.100473 0.007,0.03284 -0.015,0.07052 0,0.100475 0.0335,0.06698 0.0251,-0.07536 0.0251,0.02511"
       id="path242" /><path
       style="opacity:0.486772;fill:#00ffee;fill-opacity:1;stroke:#8ee68e;stroke-width:0.264583;stroke-linejoin:bevel;stroke-opacity:0.950867;filter:url(#filter262)"
       d="m 111.42523,54.783238 c -0.0419,0.0084 -0.0973,-0.0069 -0.12559,0.02511 -0.74796,0.845521 -1.6453,1.595858 -2.1853,2.587196 -0.11328,0.207965 0.27807,0.426395 0.50237,0.502367 0.33317,0.112848 0.70328,0.01873 1.05497,0.02511 0.10883,0.0019 0.21829,0.0114 0.32654,0 0.1504,-0.01582 0.16272,-0.07972 0.27631,-0.150712 0.0318,-0.01984 0.0712,-0.02684 0.10047,-0.05024 0.0552,-0.04414 0.0574,-0.125593 0.15071,-0.125593"
       id="path244" /><path
       style="opacity:0.486772;fill:#00ffe1;fill-opacity:1;stroke:#8ee68e;stroke-width:0.264583;stroke-linejoin:bevel;stroke-opacity:0.950867;filter:url(#filter264)"
       d="m 110.6968,61.690797 c 0.14559,0.476485 0.26417,2.176872 1.25592,2.310895 0.61896,0.08364 1.53001,-0.331719 1.909,-0.879145 0.0878,-0.126833 0.14919,-0.282908 0.25118,-0.401894 0.0197,-0.02291 0.054,-0.02889 0.0754,-0.05024 0.10631,-0.106318 0.23821,-0.375127 0.2763,-0.527487"
       id="path246" /><path
       style="opacity:0.68783069;fill:#00e5ff;fill-opacity:1;stroke:#3ff13f;stroke-width:0.264583;stroke-linejoin:bevel;stroke-opacity:0.950867;filter:url(#filter270)"
       d="m 119.36265,55.335841 c 4.313,-1.895586 -3.82357,2.239532 -2.68767,2.888618 0.0397,0.0227 0.26901,0.04902 0.2763,0.05024 0.11881,0.01979 0.22011,0.04725 0.32654,0.100473"
       id="path248" /><path
       style="opacity:0.238095;fill:#d3dbff;fill-opacity:1;stroke:#3cef6a;stroke-width:0.264583;stroke-linejoin:bevel;stroke-opacity:0.950867;filter:url(#filter258)"
       d="m 122.20103,56.817828 c -0.79542,1.540595 -1.56222,3.096305 -2.38625,4.621787 -0.18985,0.351446 -0.44205,0.665583 -0.65308,1.004734 -0.13584,0.218307 0.005,0.198826 0.20095,0.251184 0.12822,0.03419 0.21958,0.07536 0.35165,0.07536"
       id="path249" /><path
       style="opacity:0.9021164;fill:#06fbff;fill-opacity:1;stroke:#8ee68e;stroke-width:0.264583;stroke-linejoin:bevel;stroke-opacity:0.950867;filter:url(#filter271)"
       d="m 117.56601,62.50948 c -0.0335,0.184201 -0.10897,0.365578 -0.10047,0.552604 0.002,0.04182 0.0931,0.0264 0.12559,0 0.11066,-0.08991 0.18197,-0.219623 0.2763,-0.326538 0.047,-0.05327 0.11416,-0.08979 0.15071,-0.15071 0.0136,-0.0227 0.0115,-0.05265 0.0251,-0.07536 0.0437,-0.07284 0.12448,-0.132474 0.17583,-0.200948 0.0612,-0.08162 0.0831,-0.216331 0.12559,-0.301419 0.0144,-0.0288 0.0524,-0.03494 0.0754,-0.05024 0.0577,-0.03847 -0.0108,-0.01434 0.0502,-0.07535 0.0638,-0.06384 0.10412,-0.02313 0.15071,-0.125593 0.0405,-0.08922 0.0866,-0.179287 0.10047,-0.276301 0.002,-0.01458 0.002,-0.400267 0,-0.401897 -0.016,-0.01603 -0.13058,0 -0.15071,0 -0.1094,0 -0.26891,-0.02697 -0.37678,0 -0.0591,0.01479 -0.16498,0.09505 -0.22606,0.125592"
       id="path251" /><ellipse
       style="opacity:0.902116;fill:url(#radialGradient282);fill-opacity:1;stroke:none;stroke-width:0.264582;stroke-linejoin:bevel;stroke-opacity:0.950867"
       id="path273"
       cx="123.13973"
       cy="54.918221"
       rx="0.6831367"
       ry="0.81702405" /><ellipse
       style="opacity:0.902116;fill:url(#radialGradient290);fill-opacity:1;stroke:none;stroke-width:0.264583;stroke-linejoin:bevel;stroke-opacity:0.950867"
       id="path274"
       cx="116.58154"
       cy="-27.523184"
       rx="0.60000002"
       ry="0.833"
       transform="rotate(38.450223)" /><ellipse
       style="opacity:0.902116;fill:url(#radialGradient286);fill-opacity:1;stroke:none;stroke-width:0.265071;stroke-linejoin:bevel;stroke-opacity:0.950867"
       id="ellipse274"
       cx="53.006329"
       cy="115.08352"
       rx="0.91431254"
       ry="1.2411847"
       transform="matrix(0.75756277,-0.65276232,0.58541699,0.81073235,0,0)" /><ellipse
       style="opacity:0.902116;fill:url(#radialGradient280);fill-opacity:1;stroke:none;stroke-width:0.264756;stroke-linejoin:bevel;stroke-opacity:0.950867"
       id="ellipse275"
       cx="41.032169"
       cy="120.95918"
       rx="1.1198508"
       ry="1.621111"
       transform="matrix(0.6947374,-0.71926347,0.75372276,0.65719251,0,0)" /><ellipse
       style="opacity:0.902116;fill:url(#radialGradient284);fill-opacity:1;stroke:none;stroke-width:0.264582;stroke-linejoin:bevel;stroke-opacity:0.950867"
       id="ellipse276"
       cx="119.17893"
       cy="58.381699"
       rx="0.31014743"
       ry="0.33746642" /><ellipse
       style="opacity:0.902116;fill:url(#radialGradient288);fill-opacity:1;stroke:none;stroke-width:0.276544;stroke-linejoin:bevel;stroke-opacity:0.950867"
       id="ellipse277"
       cx="-140.25348"
       cy="-22.485039"
       rx="0.83719623"
       ry="0.64082849"
       transform="matrix(-0.93902964,-0.34383619,0.69282395,-0.72110677,0,0)" /><ellipse
       style="opacity:0.902116;fill:url(#radialGradient292);fill-opacity:1;stroke:none;stroke-width:0.264582;stroke-linejoin:bevel;stroke-opacity:0.950867"
       id="ellipse279"
       cx="114.5965"
       cy="53.905819"
       rx="0.31014743"
       ry="0.33746642" /></g></svg>
