<?xml version="1.0" encoding="UTF-8" standalone="no"?>
<!-- Created with Inkscape (http://www.inkscape.org/) -->

<svg
   width="0.001mm"
   height="0.001mm"
   viewBox="0 0 0.001 0.001"
   version="1.1"
   id="svg1"
   sodipodi:docname="planet.svg"
   inkscape:version="1.4 (e7c3feb1, 2024-10-09)"
   xmlns:inkscape="http://www.inkscape.org/namespaces/inkscape"
   xmlns:sodipodi="http://sodipodi.sourceforge.net/DTD/sodipodi-0.dtd"
   xmlns="http://www.w3.org/2000/svg"
   xmlns:svg="http://www.w3.org/2000/svg">
  <sodipodi:namedview
     id="namedview1"
     pagecolor="#505050"
     bordercolor="#eeeeee"
     borderopacity="1"
     inkscape:showpageshadow="0"
     inkscape:pageopacity="0"
     inkscape:pagecheckerboard="0"
     inkscape:deskcolor="#505050"
     inkscape:document-units="mm"
     inkscape:zoom="0.056568542"
     inkscape:cx="-2554.4233"
     inkscape:cy="998.78834"
     inkscape:window-width="1512"
     inkscape:window-height="856"
     inkscape:window-x="0"
     inkscape:window-y="38"
     inkscape:window-maximized="1"
     inkscape:current-layer="layer1" />
  <defs
     id="defs1">
    <inkscape:path-effect
       effect="spiro"
       id="path-effect9"
       is_visible="true"
       lpeversion="1" />
    <inkscape:path-effect
       effect="spiro"
       id="path-effect8"
       is_visible="true"
       lpeversion="1" />
    <inkscape:path-effect
       effect="spiro"
       id="path-effect7"
       is_visible="true"
       lpeversion="1" />
    <inkscape:path-effect
       effect="spiro"
       id="path-effect6"
       is_visible="true"
       lpeversion="1" />
    <inkscape:path-effect
       effect="spiro"
       id="path-effect5"
       is_visible="true"
       lpeversion="1" />
    <inkscape:path-effect
       effect="spiro"
       id="path-effect4"
       is_visible="true"
       lpeversion="1" />
    <inkscape:path-effect
       effect="spiro"
       id="path-effect3"
       is_visible="true"
       lpeversion="1" />
    <inkscape:path-effect
       effect="spiro"
       id="path-effect2"
       is_visible="true"
       lpeversion="1" />
  </defs>
  <g
     inkscape:label="Layer 1"
     inkscape:groupmode="layer"
     id="layer1">
    <circle
       style="opacity:1;fill:#b5c2b7;fill-opacity:1;stroke:#ead26d;stroke-width:0;stroke-linecap:butt;stroke-linejoin:bevel;stroke-dasharray:none;stroke-opacity:1;paint-order:normal"
       id="path42"
       cx="-112.526"
       cy="750"
       r="250" />
    <path
       style="opacity:1;fill:#b5c2b7;fill-opacity:1;stroke:#ead26d;stroke-width:0;stroke-linecap:butt;stroke-linejoin:bevel;stroke-dasharray:none;stroke-opacity:1;paint-order:normal"
       d="m -244.73975,622.64959 c 16.85443,-18.59307 8.53574,-9.99156 24.80469,-25.94462 0.36843,-0.36128 18.17832,-19.45268 18.1901,-19.45846 8.00516,-3.92488 40.68063,21.0448 46.30208,25.94462 2.33053,2.03136 3.9408,4.91303 6.61459,6.48615 2.98938,1.75882 6.73615,1.85471 9.92187,3.24308 4.75196,2.07098 8.57801,5.82726 13.22917,8.10769 0.49302,0.24172 1.26388,-0.38219 1.65364,0 0.93285,0.91473 0,12.2994 0,12.97231 0,22.48762 -1.7546,42.0535 -11.57552,63.24 -1.96214,4.23289 -5.91567,7.31374 -8.26823,11.35077 -0.87489,1.50134 -4.38022,13.60771 -8.26822,12.9723 -14.82246,-2.42244 -26.51764,-12.65575 -41.34115,-14.59384 -12.62503,-1.65065 -10.75352,0.60689 -19.84375,-1.62154 -1.60427,-0.39326 -4.55987,1.57313 -4.96094,0 -1.06951,-4.19498 0.24461,-8.65486 0,-12.9723 -2.44044,-43.07504 -0.60305,-4.44445 -3.30729,-38.91693 -0.93201,-11.88084 1.33817,-5.29771 -6.61458,-16.21538 -9.99381,-13.71968 7.98251,0.43296 -16.53646,-14.59385 z"
       id="path43" />
    <path
       style="opacity:1;fill:#8c93a8;fill-opacity:1;stroke:#ead26d;stroke-width:0;stroke-linecap:butt;stroke-linejoin:bevel;stroke-dasharray:none;stroke-opacity:1;paint-order:normal"
       d="m -218.28142,541.51286 c 6.10599,11.59798 2.98849,24.21379 4.22043,36.33499 0.49643,4.88461 0.6917,10.91981 2.1102,15.57214 0.16324,0.53541 -0.37451,3.35812 0,3.46048 3.06432,0.83752 5.76674,-1.18209 8.44083,-1.73024 2.27285,-0.46589 22.46379,-3.25881 24.2674,-3.46048 5.61902,-0.62825 11.24533,-1.21673 16.88166,-1.73023 1.39821,-0.12738 3.22566,0.81564 4.22043,0 2.04367,-1.67569 -3.92733,-23.9348 -4.22043,-26.81868 -0.37565,-3.69623 -1.02647,-13.22241 2.11021,-16.43726 5.78271,-5.92681 4.66528,-3.26408 10.55105,-12.11167 0.33682,-0.50632 -0.22244,-1.18307 0,-1.73023 1.21437,-2.98712 3.4925,-3.69183 -3.16531,-7.78607 -4.76387,-2.92955 -14.41604,-2.68944 -18.99188,-5.19071 -0.82769,-0.45244 -1.28252,-1.27781 -2.11021,-1.73024 -1.2827,-0.70115 -11.66478,-3.14005 -12.66125,-2.59535 -8.36765,4.57395 -12.5617,12.14195 -18.99188,18.16749 -1.63763,1.53459 -3.68344,2.75911 -5.27552,4.32559 -0.22516,0.22155 0.30537,0.72205 0,0.86512 -2.32557,1.08961 -4.92382,1.73024 -7.38573,2.59535 z"
       id="path44" />
    <path
       style="opacity:1;fill:#8c93a8;fill-opacity:1;stroke:#ead26d;stroke-width:0;stroke-linecap:butt;stroke-linejoin:bevel;stroke-dasharray:none;stroke-opacity:1;paint-order:normal"
       d="m -121.91104,790.60943 c 6.48295,7.51034 11.32446,15.22059 13.16822,23.82287 0.89122,4.15809 1.39785,8.35044 1.88118,12.53837 0.67611,5.85831 -2.12206,13.14998 0,18.80753 0.21508,0.57342 1.48459,0.72519 1.88117,1.25384 1.50495,2.00614 -1.50494,5.51688 0,7.52301 0.83194,1.109 18.187575,-8.77685 24.455291,-8.77685 7.69482,0 17.1557,0.97305 24.455279,0 17.163044,-2.28789 42.45331,-19.8252 39.504683,-32.59973 -3.947692,-17.10284 -13.860969,-28.91702 -26.336455,-43.88425 -2.736559,-3.28314 -6.843658,-11.68445 -13.168228,-13.79219 -9.585054,-3.19429 -41.937044,14.30012 -48.91057,17.5537 -2.29736,1.07186 -5.19139,1.47089 -7.5247,2.50767 -3.34079,1.48445 -6.06508,3.53088 -9.40587,5.01535 -0.84811,0.37686 -4.15288,-0.82848 -3.76235,1.25383 0.58535,3.12121 6.57194,18.80753 11.28705,18.80753"
       id="path45" />
    <path
       style="opacity:1;fill:#8c93a8;fill-opacity:1;stroke:#ead26d;stroke-width:0;stroke-linecap:butt;stroke-linejoin:bevel;stroke-dasharray:none;stroke-opacity:1;paint-order:normal"
       d="m 109.97872,694.98207 c -2.18274,-2.6482 -5.10301,-4.97342 -6.5482,-7.9446 -21.798445,-44.81525 0.74285,-22.00059 -42.933655,-62.2546 -2.58954,-2.3866 -5.824129,-4.37237 -9.322626,-5.76598 -4.411322,-0.0868 -5.645561,0.35985 -9.451935,-1.30229 C 37.037053,615.66868 12.814489,597.89522 11.238573,593.6678 9.5502845,589.13895 10.111827,584.60223 8.9166645,580.22342 7.3359525,574.43203 3.0646115,566.4623 -0.01807746,561.06629 -2.8965405,556.02776 -14.275862,548.74917 -18.534049,545.07057 c -4.116358,-3.55604 -11.460502,-10.65276 -17.258041,-12.62128 -6.204556,-2.10674 -26.368002,-0.31403 -32.582064,1.59292 -8.124005,2.49304 -17.941232,10.45702 -23.518039,16.28633 -2.607457,2.7255 -0.730394,4.6696 -1.581152,7.78486 -0.140227,0.51338 -1.624792,0.60086 -1.387223,1.0893 2.844719,5.84844 9.354084,10.36857 14.483617,14.79992 13.728128,11.85954 30.478692,23.38295 42.322211,36.56162 5.949619,6.6203 5.06203,13.70827 6.160323,21.33573 0.16822,1.16844 1.493614,2.21391 1.257914,3.3744 -0.473328,2.33041 -7.953838,10.22473 -8.452585,10.99955 -8.23942,12.7998 -1.245079,2.56398 -2.968372,8.87416 -0.313495,1.14796 -1.69855,2.16222 -1.45187,3.32117 0.535636,2.51657 15.612544,14.02908 17.193396,14.85317 3.941518,2.05466 19.2537525,4.5994 24.1941265,7.17475 2.15937004,1.12566 3.130912,3.44456 5.290282,4.57022 6.8426035,3.56697 14.0341555,4.59185 21.4843415,7.12152 4.73017,1.6061 13.162662,5.54465 17.387326,8.15758 1.532645,0.94793 2.348182,2.58342 3.967709,3.42766 1.306115,0.68086 7.81456,0.81672 9.451924,1.30229 3.27154,0.97018 8.64592,3.51958 12.09707,3.58738 1.42818,0.0281 2.66883,-1.06412 4.097,-1.03605 0.63869,0.012 0.69926,1.02707 1.32257,1.14254 2.15226,0.39873 18.27293,2.02562 20.29107,1.51526 4.5191,-1.1428 16.705175,-15.29739 16.711235,-15.3035 z"
       id="path46" />
    <path
       style="opacity:1;fill:#8c93a8;fill-opacity:1;stroke:#ead26d;stroke-width:0;stroke-linecap:butt;stroke-linejoin:bevel;stroke-dasharray:none;stroke-opacity:1;paint-order:normal"
       d="m -282.21829,789.32186 c -10.6331,6.07086 -14.85163,6.79055 -19.21508,25.49944 -2.05688,8.8192 17.85473,16.10303 19.03179,16.62778 1.36921,0.61041 2.94367,0.34069 4.37679,0.72975 1.03799,0.28178 -0.74512,1.21014 1.07267,0.74965 0.36833,-0.0933 0.59214,-0.61947 0.96864,-0.65393 0.16896,-0.0155 1.58973,2.90903 2.05922,3.76814 1.43835,2.63203 2.96755,7.0598 5.00096,9.15121 0.49987,0.51412 1.27462,0.55807 1.85117,0.96098 0.1599,0.11176 0.10545,0.52946 0.29417,0.53831 1.59242,0.0746 3.62409,-0.97281 4.94724,-1.86607 0.47269,-0.31911 2.72665,-1.41631 2.90592,-1.96179 1.33036,-4.04804 -0.65601,-10.18684 -1.5246,-13.70881 -0.2689,-1.09034 -0.20079,-2.26566 -0.50222,-3.34545 -0.16793,-0.60154 -0.73273,-1.00751 -0.88253,-1.61492 -0.22331,-0.90549 0.0423,-1.91044 -0.20805,-2.80715 -0.2239,-0.80205 -0.78447,-1.43549 -1.1767,-2.15324 -1.27475,-2.33265 -2.32554,-4.83604 -3.82427,-6.99798 -1.64288,-2.36989 -3.75566,-4.35948 -5.5714,-6.55539 -0.51125,-0.6183 -0.68363,-1.51691 -1.17669,-2.15323 -0.98172,-1.26693 -2.54787,-1.62102 -3.51219,-2.78724 -0.38344,-0.46373 -0.49907,-1.1512 -0.88252,-1.61493 -1.12899,-1.36538 -3.12196,-1.89733 -4.29067,-2.99858 -2.92222,-2.75357 5.9416,-0.55792 0.25835,-6.80655 -1.08264,-1.19035 -2.71428,1.57582 -4.16873,2.07741 -0.18041,0.0622 -0.11069,-0.4885 -0.29418,-0.53831 -0.58334,-0.15836 -1.6324,0.36514 -2.23145,0.76956"
       id="path47" />
    <path
       style="opacity:1;fill:#8c93a8;fill-opacity:1;stroke:#ead26d;stroke-width:0;stroke-linecap:butt;stroke-linejoin:bevel;stroke-dasharray:none;stroke-opacity:1;paint-order:normal"
       d="m -290.33091,696.96238 c -0.83189,-4.13871 -3.2124,-8.25614 -2.49568,-12.41612 2.94206,-17.07636 4.15047,-15.4482 14.97409,-19.03807 1.66379,-0.55183 4.06186,-0.17569 4.99137,-1.65548 0.54153,-0.86213 2.69616,-8.08391 1.66379,-9.9329 -1.33315,-2.3877 -6.69134,-3.20295 -5.82326,-5.79421 0.89289,-2.66531 18.14512,6.23254 19.96545,10.76066 1.77814,4.42316 3.57299,16.51898 2.49569,21.52128 -0.33879,1.57313 -1.89518,2.64493 -2.49569,4.13872 -0.96863,2.40949 -2.73532,13.91457 -1.66378,15.72708 6.22867,10.5359 6.72822,7.59509 9.98273,14.07162 0.2773,0.55183 1.36359,1.33805 0.83189,1.65549 -1.28049,0.76446 -2.78104,1.084 -4.15947,1.65548 -1.94939,0.80819 -3.7583,2.04294 -5.82326,2.48323 -1.898,0.40467 -3.90474,-0.29369 -5.82326,0 -1.73339,0.26533 -3.27163,1.31323 -4.99136,1.65548 -6.14793,1.22345 -11.56015,-2.3973 -15.80599,-6.62194 -1.08657,-1.08115 -4.65297,-2.79188 -4.99137,-4.13871 -1.01306,-4.03202 0.14454,-9.69961 -0.83189,-14.07161 -2.58337,-11.56715 -2.49568,-4.42571 -2.49568,-8.27742"
       id="path48" />
    <path
       style="opacity:1;fill:#8c93a8;fill-opacity:1;stroke:#ead26d;stroke-width:0;stroke-linecap:butt;stroke-linejoin:bevel;stroke-dasharray:none;stroke-opacity:1;paint-order:normal"
       d="m 76.793512,732.9622 c 20.851125,32.28703 26.096378,31.393 22.114593,76.31399 -5.594115,63.11053 0.406866,40.33293 -24.326053,56.74628 -3.371992,2.23773 -1.286949,2.73064 -6.634379,3.91354 -4.296512,0.95041 -8.972244,1.00634 -13.268755,1.95677 -4.691957,1.0379 -21.12413,5.66633 -24.326054,0 -6.898784,-12.20852 13.080344,-7.66037 17.691675,-11.74062 7.858557,-6.9535 8.845837,-27.37986 8.845837,-37.1786 0,-2.60901 0.810046,-5.31844 0,-7.82707 -0.713257,-2.2089 -18.303032,-25.507 -19.903134,-27.39476 -1.594706,-1.88139 -5.160071,-1.95677 -6.634378,-3.91355 -0.781823,-1.03767 -2.838965,-19.3035 -2.211459,-21.52444 0.962791,-3.40763 7.506697,-2.34272 11.057296,-3.91353 0.65933,-0.29171 -0.329663,-1.37338 0,-1.95678 0.737152,-1.30453 5.160071,-5.21806 6.634378,-5.87031 4.353401,-1.92602 11.326413,-3.29751 15.480216,-5.8703 5.567677,-3.44851 9.116722,-13.85211 15.480217,-11.74062 6.250188,2.0739 1.657115,11.72491 2.211458,17.61092 0.24487,2.60004 -2.084985,5.98221 0,7.82709 1.355994,1.19982 4.422919,1.34077 4.422919,5.8703"
       id="path49" />
    <path
       style="opacity:1;fill:#8c93a8;fill-opacity:1;stroke:#ead26d;stroke-width:0;stroke-linecap:butt;stroke-linejoin:bevel;stroke-dasharray:none;stroke-opacity:1;paint-order:normal"
       d="m -191.07305,656.19828 c -4.74314,-2.21186 -9.08687,-6.1693 -14.22944,-6.63559 -3.63633,-0.32972 -7.24473,2.04146 -10.16389,4.42373 -18.43366,15.04322 9.46718,50.81049 14.22944,66.35593 2.48286,8.10481 -3.49104,21.15704 0,28.75424 0.98127,2.13543 5.2112,12.3059 6.09834,13.2712 0.47073,0.5122 7.45561,4.17873 8.13111,4.42372 1.64973,0.59837 30.4785,1.11308 32.52444,0 4.1183,-2.24057 6.02084,-5.84208 10.16389,-8.84746 2.51673,-1.82562 7.67268,-3.92491 10.16389,-6.63558 1.07137,-1.16575 0.96141,-3.258 2.03278,-4.42374 1.72753,-1.87973 4.37081,-2.54399 6.09832,-4.42373 0.95827,-1.04269 -0.60605,-3.10482 0,-4.42373 0.42855,-0.93259 1.60424,-1.27927 2.03279,-2.21186 2.31385,-5.03541 0,-50.06597 0,-59.72034 0,-3.6619 -1.78943,-14.77431 0,-17.69493 1.06309,-1.73512 3.00245,-2.68859 4.06555,-4.42372 0.37586,-0.61346 -0.47913,-1.69055 0,-2.21188 4.20589,-4.57642 -0.16442,6.9934 4.06555,-2.21185 0.30303,-0.65946 -0.47912,-1.69054 0,-2.21188 0.47914,-0.52131 1.55365,0.52134 2.03279,0 0.47913,-0.52131 -0.47914,-1.69053 0,-2.21185 3.7837,-4.11705 16.262224,6.66127 16.262224,-4.42373 0,-6.72411 -3.796894,-8.26279 -6.098334,-13.27119 -1.29754,-2.82369 -2.77205,-7.44 -4.06556,-8.84746 -2.99513,-3.25899 -18.17459,-3.73013 -22.36056,-2.21187 -2.33501,0.84692 -2.82033,5.28067 -4.06555,6.6356 -0.47914,0.52133 -1.55365,-0.52134 -2.03277,0 -0.47914,0.52133 0.30301,1.55241 0,2.21186 -1.71281,3.7274 -4.69937,4.28079 -6.09834,8.84746 -1.05376,3.43975 -0.57391,7.88454 -2.03278,11.05933 -2.38662,5.19378 -5.74448,10.28928 -8.13111,15.48305 -0.30303,0.65945 0.47913,1.69054 0,2.21186 -0.95827,1.0427 -3.1073,-1.04269 -4.06555,0 -0.47914,0.52133 0.47913,1.69054 0,2.21187 -1.91653,2.08537 -5.42075,0 -8.13112,0 -3.17606,0 -6.24778,-6.71689 -10.16389,-8.84746 -4.84845,-2.63782 -10.85349,0.39237 -16.26222,0 -18.15443,-1.31692 -12.23423,-6.59472 -18.29499,0"
       id="path50" />
    <path
       style="opacity:1;fill:#8c93a8;fill-opacity:1;stroke:#ead26d;stroke-width:0;stroke-linecap:butt;stroke-linejoin:bevel;stroke-dasharray:none;stroke-opacity:1;paint-order:normal"
       d="m -196.78403,846.4219 c -5.51215,0.5405 -13.23911,-2.74347 -16.53645,1.62153 -9.13977,12.09912 -13.90551,27.32573 -16.53646,42.16 -4.34513,24.4994 0.7794,33.19505 14.88281,47.02462 3.13074,3.06995 6.3068,8.98753 9.92187,11.35077 2.45867,1.60729 7.06174,4.16346 9.92188,4.86462 1.06951,0.26219 2.294,-0.42583 3.30729,0 2.95423,1.24152 5.284,3.69409 8.26823,4.86461 2.60963,1.0236 5.60181,0.74998 8.26823,1.62154 6.15498,2.01182 13.80462,7.05045 18.1901,11.35077 0.38977,0.38219 -0.38977,1.23935 0,1.62154 3.32202,3.25753 31.04939,-3.90448 38.03386,-1.62154 5.93954,1.9414 6.73073,5.58157 8.26823,6.48616 11.404495,6.70984 36.927023,2.70363 47.955732,0 14.748624,-3.61557 35.149453,-11.76545 46.302083,-22.70154 3.093054,-3.03301 1.653646,-9.22599 1.653646,-12.97231 0,-2.69881 1.038246,-12.55766 0,-14.59385 -1.394477,-2.7348 -4.618396,-4.13723 -6.614584,-6.48616 -1.461502,-1.71974 -10.849375,-18.06429 -16.536458,-19.45846 -2.673786,-0.65546 -5.512152,0 -8.268229,0 -2.756077,0 -5.594442,-0.65546 -8.268229,0 -5.476692,1.34259 -12.107344,10.67037 -21.497395,12.97231 -11.813313,2.89599 -22.372418,3.24308 -34.726566,3.24308 -12.49502,0 -31.29537,2.30661 -44.64844,-1.62154 -12.97917,-3.81813 -23.75641,-14.31883 -26.45833,-27.56615 -1.15347,-5.65536 -0.44986,-10.61148 -3.3073,-16.21539 -1.25628,-2.46377 -4.08439,-3.90757 -4.96093,-6.48615 -1.94717,-5.72808 -1.36234,-15.24462 -6.61459,-19.45846 -2.79978,-2.24626 -13.09243,-1.62154 -18.1901,-1.62154"
       id="path51" />
  </g>
</svg>
