<?xml version="1.0" encoding="UTF-8" standalone="no"?>
<!-- Created with Inkscape (http://www.inkscape.org/) -->

<svg
   width="210mm"
   height="297mm"
   viewBox="0 0 210 297"
   version="1.1"
   id="svg1"
   xml:space="preserve"
   sodipodi:docname="Planet4.svg"
   inkscape:version="1.4 (e7c3feb1, 2024-10-09)"
   xmlns:inkscape="http://www.inkscape.org/namespaces/inkscape"
   xmlns:sodipodi="http://sodipodi.sourceforge.net/DTD/sodipodi-0.dtd"
   xmlns:xlink="http://www.w3.org/1999/xlink"
   xmlns="http://www.w3.org/2000/svg"
   xmlns:svg="http://www.w3.org/2000/svg"><sodipodi:namedview
     id="namedview1"
     pagecolor="#ffffff"
     bordercolor="#000000"
     borderopacity="0.25"
     inkscape:showpageshadow="2"
     inkscape:pageopacity="0.0"
     inkscape:pagecheckerboard="0"
     inkscape:deskcolor="#d1d1d1"
     inkscape:document-units="mm"
     showguides="false"
     inkscape:zoom="7.8661346"
     inkscape:cx="370.25809"
     inkscape:cy="322.52181"
     inkscape:window-width="1512"
     inkscape:window-height="855"
     inkscape:window-x="0"
     inkscape:window-y="38"
     inkscape:window-maximized="0"
     inkscape:current-layer="layer1" /><defs
     id="defs1"><linearGradient
       id="linearGradient341"
       inkscape:collect="always"><stop
         style="stop-color:#6d3a3a;stop-opacity:1;"
         offset="0.43150684"
         id="stop342" /><stop
         style="stop-color:#6d3a3a;stop-opacity:0;"
         offset="1"
         id="stop343" /></linearGradient><linearGradient
       id="linearGradient339"
       inkscape:collect="always"><stop
         style="stop-color:#6d3a3a;stop-opacity:1;"
         offset="0.55479455"
         id="stop340" /><stop
         style="stop-color:#6d3a3a;stop-opacity:0;"
         offset="1"
         id="stop341" /></linearGradient><linearGradient
       id="linearGradient337"
       inkscape:collect="always"><stop
         style="stop-color:#6d3a3a;stop-opacity:1;"
         offset="0.61415523"
         id="stop338" /><stop
         style="stop-color:#6d3a3a;stop-opacity:0;"
         offset="1"
         id="stop339" /></linearGradient><linearGradient
       id="linearGradient335"
       inkscape:collect="always"><stop
         style="stop-color:#6d3a3a;stop-opacity:1;"
         offset="0.53424656"
         id="stop336" /><stop
         style="stop-color:#6d3a3a;stop-opacity:0;"
         offset="1"
         id="stop337" /></linearGradient><linearGradient
       id="linearGradient333"
       inkscape:collect="always"><stop
         style="stop-color:#6d3a3a;stop-opacity:1;"
         offset="0.30821916"
         id="stop334" /><stop
         style="stop-color:#6d3a3a;stop-opacity:0;"
         offset="1"
         id="stop335" /></linearGradient><linearGradient
       id="linearGradient331"
       inkscape:collect="always"><stop
         style="stop-color:#6d3a3a;stop-opacity:1;"
         offset="0.3242009"
         id="stop332" /><stop
         style="stop-color:#6d3a3a;stop-opacity:0;"
         offset="1"
         id="stop333" /></linearGradient><linearGradient
       id="linearGradient330"
       inkscape:collect="always"><stop
         style="stop-color:#6d3a3a;stop-opacity:1;"
         offset="0.31278539"
         id="stop330" /><stop
         style="stop-color:#6d3a3a;stop-opacity:0;"
         offset="1"
         id="stop331" /></linearGradient><inkscape:path-effect
       effect="spiro"
       id="path-effect231"
       is_visible="true"
       lpeversion="1" /><filter
       inkscape:collect="always"
       style="color-interpolation-filters:sRGB"
       id="filter293"
       x="-0.00020525991"
       y="-0.00021488147"
       width="1.0004105"
       height="1.0004298"><feGaussianBlur
         inkscape:collect="always"
         stdDeviation="0.0017271933"
         id="feGaussianBlur293" /></filter><filter
       inkscape:collect="always"
       style="color-interpolation-filters:sRGB"
       id="filter309"
       x="-0.35852767"
       y="-0.36830237"
       width="1.7170553"
       height="1.7366047"><feGaussianBlur
         inkscape:collect="always"
         stdDeviation="0.49783516"
         id="feGaussianBlur309" /></filter><filter
       inkscape:collect="always"
       style="color-interpolation-filters:sRGB"
       id="filter310"
       x="-0.49896184"
       y="-0.36814723"
       width="1.9979237"
       height="1.7362945"><feGaussianBlur
         inkscape:collect="always"
         stdDeviation="0.53942435"
         id="feGaussianBlur310" /></filter><filter
       inkscape:collect="always"
       style="color-interpolation-filters:sRGB"
       id="filter318"
       x="-0.59992526"
       y="-0.57997047"
       width="2.1998505"
       height="2.1599409"><feGaussianBlur
         inkscape:collect="always"
         stdDeviation="0.51913428"
         id="feGaussianBlur318" /></filter><filter
       inkscape:collect="always"
       style="color-interpolation-filters:sRGB"
       id="filter319"
       x="-0.46666405"
       y="-0.23527625"
       width="1.9333281"
       height="1.4705525"><feGaussianBlur
         inkscape:collect="always"
         stdDeviation="0.33073894"
         id="feGaussianBlur319" /></filter><filter
       inkscape:collect="always"
       style="color-interpolation-filters:sRGB"
       id="filter320"
       x="-0.4961926"
       y="-0.29099781"
       width="1.9923852"
       height="1.5819956"><feGaussianBlur
         inkscape:collect="always"
         stdDeviation="0.23993381"
         id="feGaussianBlur320" /></filter><filter
       inkscape:collect="always"
       style="color-interpolation-filters:sRGB"
       id="filter321"
       x="-0.20793456"
       y="-1.0313221"
       width="1.4158691"
       height="3.0626442"><feGaussianBlur
         inkscape:collect="always"
         stdDeviation="0.257362"
         id="feGaussianBlur321" /></filter><filter
       inkscape:collect="always"
       style="color-interpolation-filters:sRGB"
       id="filter322"
       x="-0.50020038"
       y="-0.61179698"
       width="2.0004008"
       height="2.223594"><feGaussianBlur
         inkscape:collect="always"
         stdDeviation="0.47258838"
         id="feGaussianBlur322" /></filter><filter
       inkscape:collect="always"
       style="color-interpolation-filters:sRGB"
       id="filter323"
       x="-0.77387126"
       y="-0.34341277"
       width="2.5477425"
       height="1.6868255"><feGaussianBlur
         inkscape:collect="always"
         stdDeviation="0.46265846"
         id="feGaussianBlur323" /></filter><filter
       inkscape:collect="always"
       style="color-interpolation-filters:sRGB"
       id="filter324"
       x="-0.5931658"
       y="-1.0808469"
       width="2.1863316"
       height="3.1616938"><feGaussianBlur
         inkscape:collect="always"
         stdDeviation="0.89763999"
         id="feGaussianBlur324" /></filter><radialGradient
       inkscape:collect="always"
       xlink:href="#linearGradient330"
       id="radialGradient331"
       cx="99.441635"
       cy="95.418518"
       fx="99.441635"
       fy="95.418518"
       r="0.77737421"
       gradientTransform="matrix(1,0,0,1.2508734,-0.11638778,-23.172487)"
       gradientUnits="userSpaceOnUse" /><radialGradient
       inkscape:collect="always"
       xlink:href="#linearGradient331"
       id="radialGradient333"
       cx="22.006802"
       cy="127.95138"
       fx="22.006802"
       fy="127.95138"
       r="1.1051618"
       gradientTransform="matrix(1,0,0,1.4245748,-2.3412415,-54.008137)"
       gradientUnits="userSpaceOnUse" /><radialGradient
       inkscape:collect="always"
       xlink:href="#linearGradient333"
       id="radialGradient335"
       cx="-89.46492"
       cy="105.67976"
       fx="-89.46492"
       fy="105.67976"
       r="0.33182594"
       gradientTransform="matrix(1,0,0,2.9912219,0,-210.43186)"
       gradientUnits="userSpaceOnUse" /><radialGradient
       inkscape:collect="always"
       xlink:href="#linearGradient335"
       id="radialGradient337"
       cx="41.93034"
       cy="114.97092"
       fx="41.93034"
       fy="114.97092"
       r="1.3315725"
       gradientTransform="matrix(1,0,0,1.2145171,0.25800319,-24.153758)"
       gradientUnits="userSpaceOnUse" /><radialGradient
       inkscape:collect="always"
       xlink:href="#linearGradient337"
       id="radialGradient339"
       cx="101.03829"
       cy="80.426437"
       fx="101.03829"
       fy="80.426437"
       r="0.27345178"
       gradientTransform="matrix(1,0,0,1.2549147,0,-20.501884)"
       gradientUnits="userSpaceOnUse" /><radialGradient
       inkscape:collect="always"
       xlink:href="#linearGradient339"
       id="radialGradient341"
       cx="106.69726"
       cy="85.279938"
       fx="106.69726"
       fy="85.279938"
       r="0.27345178"
       gradientTransform="matrix(1,0,0,1.2549147,1.3824276,-20.950471)"
       gradientUnits="userSpaceOnUse" /><radialGradient
       inkscape:collect="always"
       xlink:href="#linearGradient341"
       id="radialGradient343"
       cx="-122.02054"
       cy="-15.236529"
       fx="-122.02054"
       fy="-15.236529"
       r="0.46994799"
       gradientTransform="matrix(1,0,0,1.4332754,0,6.6016137)"
       gradientUnits="userSpaceOnUse" /><radialGradient
       inkscape:collect="always"
       xlink:href="#linearGradient333"
       id="radialGradient1"
       gradientUnits="userSpaceOnUse"
       gradientTransform="matrix(2.356181,0,-1.3601372e-8,1.3444032,147.00776,-41.928407)"
       cx="-89.46492"
       cy="105.67976"
       fx="-89.46492"
       fy="105.67976"
       r="0.33182594" /></defs><g
     inkscape:label="Шар 1"
     inkscape:groupmode="layer"
     id="layer1"><ellipse
       style="opacity:1;mix-blend-mode:normal;fill:#353935;fill-opacity:1;stroke:none;stroke-width:0.264583;stroke-linejoin:bevel;stroke-opacity:0.950867;filter:url(#filter293)"
       id="path293"
       cx="97.007256"
       cy="84.397827"
       rx="10.097597"
       ry="9.6454659" /><path
       style="opacity:0.656085;fill:#444444;fill-opacity:1;stroke:none;stroke-width:0.264583;stroke-linejoin:bevel;stroke-opacity:0.950867;filter:url(#filter309)"
       d="m 91.668402,84.109749 c 0.294259,-0.110347 0.441966,-0.203528 0.828908,0.02511 0.20954,0.123817 0.315148,0.371052 0.47725,0.552604 0.04732,0.053 0.107553,0.09427 0.15071,0.150709 0.06632,0.08672 0.109513,0.189585 0.175828,0.276304 0.04316,0.05644 0.10482,0.09647 0.15071,0.15071 0.266898,0.315423 0.613875,0.888764 0.703315,1.306158 0.01937,0.09036 0.06735,0.315298 0,0.401894 -0.03707,0.04766 -0.09977,0.06806 -0.150709,0.100473 -0.277048,0.176302 -0.762371,0.179593 -1.080093,0.150712 -0.370832,-0.03371 -0.221292,-0.05964 -0.60284,-0.200949 -0.114321,-0.04234 -0.239606,-0.05245 -0.351657,-0.100473 -0.30288,-0.129807 -0.358913,-0.21536 -0.602843,-0.401894 -0.108855,-0.08324 -0.194283,-0.120615 -0.276302,-0.226065 -0.243305,-0.312822 -0.226065,-0.897999 -0.226065,-1.281041 0,-0.08373 -0.01643,-0.169082 0,-0.251182 0.0088,-0.04421 0.03598,-0.08282 0.05024,-0.125593 0.04682,-0.140459 0.05878,-0.293394 0.125593,-0.427013 0.06408,-0.128159 0.393224,-0.01905 0.502367,-0.05024 0.04336,-0.01238 0.08066,-0.05398 0.125592,-0.05024 0.06355,0.0053 0.115335,0.05519 0.175829,0.07536 0.01587,0.0053 0.03526,-0.0075 0.05024,0 0.01497,0.0075 0,0.03349 0,0.05024"
       id="path301" /><path
       style="opacity:0.515873;mix-blend-mode:normal;fill:#7c6767;fill-opacity:1;stroke:none;stroke-width:0.321277;stroke-linejoin:bevel;stroke-opacity:0.950867;filter:url(#filter310)"
       d="m 95.701116,79.198323 c -0.73914,1.346293 -0.916308,1.063538 -0.527487,2.53696 0.191474,0.725588 0.791565,0.979618 1.456868,0.979618 0.184129,0 0.347279,-0.01482 0.502367,-0.125593 0.09635,-0.06882 0.180139,-0.156456 0.251185,-0.251182 0.07221,-0.09629 0.165287,-0.50147 0.175828,-0.627962 0.01773,-0.212699 0,-0.440725 0,-0.653076 0,-0.112774 0.02719,-0.346475 -0.02511,-0.477251 -0.02511,-0.05024 -0.05024,-0.100475 -0.07535,-0.150712 -0.01675,-0.01675 -0.03965,-0.02905 -0.05024,-0.05024 -0.01545,-0.03088 -0.0044,-0.07286 -0.02511,-0.100473 -0.04521,-0.06028 -0.499531,-0.403262 -0.577723,-0.45213 -0.229486,-0.143431 -0.496578,-0.266002 -0.753552,-0.351658 -0.04832,-0.01611 -0.103423,-0.0062 -0.150712,-0.02511 -0.04502,-0.01802 -0.07683,-0.06316 -0.125592,-0.07536 -0.01439,-0.0036 -0.112829,0.01275 -0.12559,0 -0.0431,-0.0431 0.0276,-0.119232 0.05024,-0.175829 z"
       id="path305"
       transform="matrix(0.59038912,-0.54739484,0.80711876,0.40040695,-24.451743,97.917584)" /><path
       style="opacity:0.261905;fill:#7c6767;fill-opacity:1;stroke:none;stroke-width:0.264583;stroke-linejoin:bevel;stroke-opacity:0.950867;filter:url(#filter318)"
       d="m 98.829359,86.46847 c -0.08018,-0.01805 -0.178064,-0.06827 -0.217524,-0.111646 -0.09447,-0.103836 -0.260789,-0.615646 -0.283083,-0.871107 -0.0231,-0.264771 0.04606,-0.366537 0.468773,-0.68975 0.396129,-0.302882 0.467346,-0.364082 0.48487,-0.41665 0.01826,-0.0548 0.154487,0.01516 0.297725,0.152887 0.058,0.05579 0.17227,0.131956 0.2539,0.169267 0.17218,0.0787 0.40184,0.325485 0.5091,0.547069 0.069,0.142475 0.0717,0.176471 0.0354,0.441465 -0.0437,0.319307 -0.10612,0.520972 -0.21646,0.699508 l -0.0738,0.119348 -0.55659,-0.0038 c -0.306124,-0.0021 -0.622187,-0.01855 -0.702367,-0.03659 z"
       id="path311"
       sodipodi:nodetypes="cssssssccccscc" /><path
       style="opacity:0.515873;fill:#7c6767;fill-opacity:1;stroke:none;stroke-width:1;stroke-linejoin:bevel;stroke-opacity:0.950867"
       d="m 377.27938,302.60939 c 0.006,-0.15641 0.0383,-0.18822 0.0811,-0.0811 0.0388,0.0969 0.034,0.21272 -0.0106,0.25733 -0.0446,0.0446 -0.0763,-0.0347 -0.0705,-0.17621 z"
       id="path312"
       transform="scale(0.26458333)" /><path
       style="opacity:0.515873;fill:#7c6767;fill-opacity:1;stroke:none;stroke-width:0.264583;stroke-linejoin:bevel;stroke-opacity:0.950867;filter:url(#filter320)"
       d="m 102.04107,79.904248 c -0.14975,-0.177962 -0.18651,-0.279903 -0.21277,-0.590077 -0.0268,-0.316674 -0.15681,-0.848405 -0.2699,-1.104071 -0.0389,-0.08787 -0.0647,-0.165688 -0.0575,-0.172937 0.007,-0.0073 0.14403,0.02903 0.30397,0.08062 0.23054,0.07436 0.33042,0.130005 0.482,0.268541 0.21615,0.197549 0.37426,0.480333 0.37334,0.667734 -0.001,0.219649 -0.0988,0.601126 -0.175,0.682885 -0.0402,0.04312 -0.073,0.09688 -0.073,0.119477 0,0.06385 -0.12184,0.15866 -0.2039,0.15866 -0.0407,0 -0.11593,-0.04987 -0.16722,-0.110828 z"
       id="path313" /><path
       style="opacity:0.515873;fill:#7c6767;fill-opacity:1;stroke:none;stroke-width:0.264583;stroke-linejoin:bevel;stroke-opacity:0.950867;filter:url(#filter319)"
       d="m 104.50804,86.785357 c 0,-0.02755 -0.0479,-0.151437 -0.10654,-0.275302 -0.0586,-0.123864 -0.10655,-0.267425 -0.10657,-0.319024 -10e-6,-0.0516 0.0719,-0.377923 0.15983,-0.725159 0.15837,-0.62548 0.15985,-0.636974 0.16039,-1.238287 2.7e-4,-0.33382 0.0134,-0.627219 0.0291,-0.651997 0.0454,-0.07159 0.24981,-0.1148 0.54298,-0.1148 0.17969,0 0.28416,0.01564 0.30965,0.04635 0.0212,0.02551 0.11304,0.24529 0.20417,0.488439 0.0911,0.243147 0.19731,0.504616 0.23595,0.581041 0.0618,0.122253 0.0679,0.186288 0.0503,0.532842 -0.0352,0.694118 -0.0906,0.963154 -0.23666,1.148789 -0.065,0.08259 -1.08689,0.574119 -1.19822,0.576323 -0.0244,5.29e-4 -0.0444,-0.02167 -0.0444,-0.04921 z"
       id="path314" /><path
       style="opacity:0.42063492;fill:#7c6767;fill-opacity:1;stroke:none;stroke-width:0.264583;stroke-linejoin:bevel;stroke-opacity:0.950867;filter:url(#filter321)"
       d="m 96.501123,92.561894 c -0.174436,-0.05934 -0.235536,-0.124835 -0.145588,-0.156028 0.03253,-0.0113 0.08714,-0.01425 0.121212,-0.0066 0.03404,0.0077 0.231168,-0.02032 0.437967,-0.0622 0.206791,-0.04189 0.406219,-0.06908 0.44317,-0.06043 0.037,0.0087 0.206548,-0.01628 0.376881,-0.05541 0.392318,-0.09011 1.50465,-0.136746 1.549208,-0.06495 0.0083,0.0133 -0.04659,0.08584 -0.121755,0.161226 -0.122756,0.122948 -0.184351,0.14788 -0.599338,0.242608 -0.708746,0.161792 -1.214196,0.199537 -1.59669,0.11923 -0.172123,-0.03619 -0.381389,-0.08901 -0.46501,-0.117488 z"
       id="path315" /><path
       style="opacity:0.457672;fill:#7c6767;fill-opacity:1;stroke:none;stroke-width:0.264583;stroke-linejoin:bevel;stroke-opacity:0.950867;filter:url(#filter322)"
       d="m 96.075611,89.477466 c -0.06629,0.105907 -0.128302,0.229281 -0.137826,0.274154 -0.01551,0.0731 -0.04922,0.0886 -0.324049,0.149056 -0.185809,0.04086 -0.336768,0.05721 -0.382894,0.0415 -0.04188,-0.01427 -0.245421,-0.146692 -0.452315,-0.294255 -0.307815,-0.219545 -0.413194,-0.31962 -0.579927,-0.550736 -0.190937,-0.264672 -0.206509,-0.300158 -0.247549,-0.564144 l -0.04379,-0.281708 0.505492,-0.07858 0.505494,-0.07859 0.205316,0.17479 c 0.112919,0.09613 0.231923,0.227275 0.264441,0.291422 0.08979,0.177119 0.344989,0.364099 0.523552,0.383604 0.176308,0.01926 0.182157,0.02424 0.240525,0.204714 0.04032,0.124682 0.03384,0.152452 -0.07647,0.32875 z"
       id="path316" /><path
       style="opacity:0.457672;mix-blend-mode:normal;fill:#7c6767;fill-opacity:1;stroke:none;stroke-width:0.264583;stroke-linejoin:bevel;stroke-opacity:0.950867;filter:url(#filter323)"
       d="m 88.628284,84.657531 c -0.02058,-0.02598 -0.03534,-0.06523 -0.03279,-0.08717 0.0026,-0.02194 -0.03115,-0.06475 -0.07488,-0.09514 -0.150313,-0.104402 -0.153767,-0.315012 -0.01823,-1.112592 0.06503,-0.382719 0.07858,-0.419715 0.265425,-0.725081 0.212952,-0.348035 0.23739,-0.427636 0.171608,-0.558958 -0.06159,-0.122955 0.02307,-0.309586 0.19405,-0.427789 0.07507,-0.0519 0.151212,-0.09266 0.169185,-0.09057 0.01798,0.0021 0.06802,-0.02628 0.111199,-0.06303 0.09902,-0.08427 0.208083,-0.04811 0.346386,0.114828 0.07796,0.09185 0.09297,0.13569 0.06709,0.195909 -0.03268,0.07605 -0.05018,0.09811 -0.248233,0.312909 -0.125435,0.136043 -0.297665,0.610481 -0.613149,1.689012 -0.136321,0.46605 -0.259649,0.858065 -0.274055,0.871142 -0.01442,0.01308 -0.04303,0.0025 -0.06362,-0.02347 z"
       id="path322" /><path
       style="opacity:0.457672;mix-blend-mode:normal;fill:#7c6767;fill-opacity:1;stroke:none;stroke-width:0.264583;stroke-linejoin:bevel;stroke-opacity:0.950867;filter:url(#filter324)"
       d="m 94.785938,80.51519 c -0.489071,0.189636 -0.486782,0.189174 -0.727762,0.146115 -0.123647,-0.02209 -0.399593,-0.09412 -0.613216,-0.160057 -0.360083,-0.11115 -0.440165,-0.122378 -1.098315,-0.153978 -0.456517,-0.02191 -0.736382,-0.04999 -0.784077,-0.07864 -0.10565,-0.06347 -0.143161,-0.197605 -0.160568,-0.574187 -0.02173,-0.469963 -0.0022,-0.495049 0.524619,-0.674015 0.22781,-0.07739 0.513571,-0.183051 0.635029,-0.234804 l 0.220828,-0.09409 0.508551,0.04409 c 0.279702,0.02423 0.532504,0.04531 0.561788,0.04681 0.238609,0.01223 0.686783,0.249901 0.714183,0.378816 0.009,0.04104 0.11631,0.308478 0.23909,0.594315 0.12278,0.285835 0.22286,0.552599 0.22241,0.592807 -6.3e-4,0.05704 -0.0539,0.0937 -0.24256,0.16683 z"
       id="path323" /><ellipse
       style="opacity:0.933862;fill:url(#radialGradient333);fill-opacity:1;stroke:none;stroke-width:0.264685;stroke-linejoin:bevel;stroke-opacity:0.950867"
       id="path324"
       cx="19.66556"
       cy="128.26817"
       rx="1.1051618"
       ry="1.5743856"
       transform="matrix(0.70931395,-0.7048927,0.67658171,0.73636757,0,0)" /><ellipse
       style="opacity:0.933862;fill:url(#radialGradient335);fill-opacity:1;stroke:none;stroke-width:0.264737;stroke-linejoin:bevel;stroke-opacity:0.950867"
       id="ellipse324"
       cx="-89.46492"
       cy="105.67976"
       rx="0.33182594"
       ry="0.99256504"
       transform="matrix(0.08628274,-0.99627069,0.99927673,0.03802653,0,0)" /><ellipse
       style="opacity:0.933862;fill:url(#radialGradient331);fill-opacity:1;stroke:none;stroke-width:0.264609;stroke-linejoin:bevel;stroke-opacity:0.950867"
       id="ellipse325"
       cx="99.325249"
       cy="96.183998"
       rx="0.77737421"
       ry="0.97239673"
       transform="matrix(0.99652789,-0.08325961,0.06363583,0.99797319,0,0)" /><ellipse
       style="opacity:0.933862;fill:url(#radialGradient343);fill-opacity:1;stroke:none;stroke-width:0.266602;stroke-linejoin:bevel;stroke-opacity:0.950867"
       id="ellipse326"
       cx="-122.02054"
       cy="-15.236529"
       rx="0.46994799"
       ry="0.67356491"
       transform="matrix(-0.66000479,-0.75126139,-0.62572638,0.78004263,0,0)" /><ellipse
       style="opacity:0.933862;fill:url(#radialGradient337);fill-opacity:1;stroke:none;stroke-width:0.265606;stroke-linejoin:bevel;stroke-opacity:0.950867"
       id="ellipse327"
       cx="42.188343"
       cy="115.48039"
       rx="1.3315725"
       ry="1.6172177"
       transform="matrix(0.94305559,-0.33263517,0.44671419,0.89467672,0,0)" /><ellipse
       style="opacity:0.933862;fill:url(#radialGradient339);fill-opacity:1;stroke:none;stroke-width:0.264943;stroke-linejoin:bevel;stroke-opacity:0.950867"
       id="ellipse328"
       cx="101.03829"
       cy="80.426437"
       rx="0.27345178"
       ry="0.34315866"
       transform="matrix(0.999876,0.01574769,-0.08934587,0.99600066,0,0)" /><ellipse
       style="opacity:0.933862;fill:url(#radialGradient341);fill-opacity:1;stroke:none;stroke-width:0.264943;stroke-linejoin:bevel;stroke-opacity:0.950867"
       id="ellipse330"
       cx="108.07968"
       cy="86.068581"
       rx="0.27345178"
       ry="0.34315866"
       transform="matrix(0.999876,0.01574769,-0.08934587,0.99600066,0,0)" /><ellipse
       style="opacity:0.933862;fill:url(#radialGradient1);fill-opacity:1;stroke:none;stroke-width:0.272433;stroke-linejoin:bevel;stroke-opacity:0.950867"
       id="ellipse1"
       cx="-63.787788"
       cy="100.1478"
       rx="0.78184199"
       ry="0.44610786"
       transform="matrix(0.01613763,-0.99986978,0.97978174,0.20006933,0,0)" /></g></svg>
